<svg width="40" height="40" viewBox="0 0 40 40" fill="none" xmlns="http://www.w3.org/2000/svg">
<path fill-rule="evenodd" clip-rule="evenodd" d="M38.6207 27.6575H1.37931V21.2565C1.37931 20.878 1.07034 20.5708 0.689655 20.5708C0.308966 20.5708 0 20.878 0 21.2565C0 25.2109 0 29.0961 0 31.086C0 31.6311 0.217931 32.155 0.606207 32.5403C0.993793 32.9264 1.52 33.1431 2.06897 33.1431H4.82759C5.20828 33.1431 5.51724 32.8359 5.51724 32.4574C5.51724 32.0789 5.20828 31.7717 4.82759 31.7717H2.06897C1.88621 31.7717 1.71035 31.699 1.58138 31.5708C1.45172 31.4418 1.37931 31.2677 1.37931 31.086V29.0289H38.6207V31.086C38.6207 31.2677 38.5483 31.4418 38.4186 31.5708C38.2897 31.699 38.1138 31.7717 37.931 31.7717H7.58621C7.20552 31.7717 6.89655 32.0789 6.89655 32.4574C6.89655 32.8359 7.20552 33.1431 7.58621 33.1431H16.28C16.1697 34.9814 15.6903 37.3573 13.9234 38.6286H12.7586C12.3779 38.6286 12.069 38.9358 12.069 39.3143C12.069 39.6928 12.3779 40 12.7586 40H27.2414C27.6221 40 27.931 39.6928 27.931 39.3143C27.931 38.9358 27.6221 38.6286 27.2414 38.6286H26.0766C24.3097 37.3573 23.8303 34.9821 23.72 33.1431H37.931C38.48 33.1431 39.0062 32.9264 39.3938 32.5403C39.7821 32.155 40 31.6311 40 31.086C40 26.9526 40 14.6478 40 10.5151C40 9.96931 39.7821 9.44613 39.3938 9.06077C39.0062 8.67472 38.48 8.45804 37.931 8.45804H32.069C31.6883 8.45804 31.3793 8.76523 31.3793 9.14374C31.3793 9.52224 31.6883 9.82943 32.069 9.82943H37.931C38.1138 9.82943 38.2897 9.90143 38.4186 10.0303C38.5483 10.1586 38.6207 10.3334 38.6207 10.5151V27.6575ZM22.3407 33.1431H17.6593C17.5524 34.8779 17.1179 37.0378 15.8766 38.6286H24.1234C22.8821 37.0378 22.4476 34.8779 22.3407 33.1431ZM8.96552 8.45804H2.06897C1.52 8.45804 0.993793 8.67472 0.606207 9.06077C0.217931 9.44613 0 9.96931 0 10.5151C0 12.1958 0 15.2286 0 18.5138C0 18.8923 0.308966 19.1995 0.689655 19.1995C1.07034 19.1995 1.37931 18.8923 1.37931 18.5138V10.5151C1.37931 10.3334 1.45172 10.1586 1.58138 10.0303C1.71035 9.90143 1.88621 9.82943 2.06897 9.82943H8.96552V13.7139C8.96552 14.0924 9.27448 14.3996 9.65517 14.3996C10.0359 14.3996 10.3448 14.0924 10.3448 13.7139V2.05708C10.3448 1.67858 10.6538 1.37139 11.0345 1.37139H28.2759C28.6566 1.37139 28.9655 1.67858 28.9655 2.05708V4.11417H13.1034C12.7228 4.11417 12.4138 4.42136 12.4138 4.79986C12.4138 5.17837 12.7228 5.48556 13.1034 5.48556H28.9655V15.086L25.2959 15.0853C25.0959 15.0853 24.9055 15.1717 24.7745 15.3218C24.6434 15.472 24.5841 15.6716 24.6124 15.8683L25.5841 22.6046C25.6221 22.8707 25.8131 23.0894 26.0724 23.1655C26.331 23.2409 26.611 23.1593 26.7876 22.9564L28.369 21.1434L28.9655 21.6577V23.9993C28.9655 24.3778 28.6566 24.685 28.2759 24.685H11.0345C10.6538 24.685 10.3448 24.3778 10.3448 23.9993V16.4567C10.3448 16.0782 10.0359 15.771 9.65517 15.771C9.27448 15.771 8.96552 16.0782 8.96552 16.4567V23.9993C8.96552 25.1355 9.89172 26.0564 11.0345 26.0564H28.2759C29.4186 26.0564 30.3448 25.1355 30.3448 23.9993V22.8467L31.7559 24.0631C32.0434 24.3113 32.4793 24.2804 32.729 23.9945L34.5359 21.9223C34.7855 21.6357 34.7545 21.2031 34.4669 20.9548L31.08 18.0351L32.6614 16.2215C32.8379 16.0192 32.8793 15.7319 32.7676 15.4878C32.6552 15.2437 32.4103 15.0867 32.14 15.0867H30.3448V2.05708C30.3448 0.920888 29.4186 0 28.2759 0H11.0345C9.89172 0 8.96552 0.920888 8.96552 2.05708V8.45804ZM2.75862 23.3136V24.685C2.75862 25.0635 3.06759 25.3707 3.44828 25.3707C3.82897 25.3707 4.13793 25.0635 4.13793 24.685V23.3136C4.13793 22.9351 3.82897 22.6279 3.44828 22.6279C3.06759 22.6279 2.75862 22.9351 2.75862 23.3136ZM28.7517 19.6582C28.4641 19.41 28.0283 19.4408 27.7786 19.7268L26.7352 20.924L26.091 16.4567L30.6297 16.458L29.5862 17.6546C29.3366 17.9405 29.3676 18.3739 29.6552 18.6221L33.0421 21.5418L32.1386 22.5779L28.7517 19.6582ZM4.13793 21.2565V12.3425C4.13793 11.964 3.82897 11.6568 3.44828 11.6568C3.06759 11.6568 2.75862 11.964 2.75862 12.3425V21.2565C2.75862 21.635 3.06759 21.9422 3.44828 21.9422C3.82897 21.9422 4.13793 21.635 4.13793 21.2565ZM14.4828 16.4567C14.4828 16.0782 14.1738 15.771 13.7931 15.771H12.4138C12.0331 15.771 11.7241 16.0782 11.7241 16.4567V17.8281C11.7241 18.2066 12.0331 18.5138 12.4138 18.5138H13.7931C14.1738 18.5138 14.4828 18.2066 14.4828 17.8281V16.4567ZM15.8621 17.8281H22.7586C23.1393 17.8281 23.4483 17.5209 23.4483 17.1424C23.4483 16.7639 23.1393 16.4567 22.7586 16.4567H15.8621C15.4814 16.4567 15.1724 16.7639 15.1724 17.1424C15.1724 17.5209 15.4814 17.8281 15.8621 17.8281ZM14.4828 12.3425C14.4828 11.964 14.1738 11.6568 13.7931 11.6568H12.4138C12.0331 11.6568 11.7241 11.964 11.7241 12.3425V13.7139C11.7241 14.0924 12.0331 14.3996 12.4138 14.3996H13.7931C14.1738 14.3996 14.4828 14.0924 14.4828 13.7139V12.3425ZM15.8621 13.7139H26.8966C27.2772 13.7139 27.5862 13.4067 27.5862 13.0282C27.5862 12.6497 27.2772 12.3425 26.8966 12.3425H15.8621C15.4814 12.3425 15.1724 12.6497 15.1724 13.0282C15.1724 13.4067 15.4814 13.7139 15.8621 13.7139ZM14.4828 8.22834C14.4828 7.84983 14.1738 7.54264 13.7931 7.54264H12.4138C12.0331 7.54264 11.7241 7.84983 11.7241 8.22834V9.59973C11.7241 9.97823 12.0331 10.2854 12.4138 10.2854H13.7931C14.1738 10.2854 14.4828 9.97823 14.4828 9.59973V8.22834ZM15.8621 9.59973H26.8966C27.2772 9.59973 27.5862 9.29253 27.5862 8.91403C27.5862 8.53553 27.2772 8.22834 26.8966 8.22834H15.8621C15.4814 8.22834 15.1724 8.53553 15.1724 8.91403C15.1724 9.29253 15.4814 9.59973 15.8621 9.59973Z" fill="#F5F5FC"/>
</svg>
