<svg width="36" height="40" viewBox="0 0 36 40" fill="none" xmlns="http://www.w3.org/2000/svg">
<path d="M32.9751 30.024L27.1068 28.2765L26.2392 26.985C25.9356 26.5328 25.4276 26.2577 24.8802 26.249C24.8614 26.2487 24.8428 26.2494 24.824 26.2498V23.9301L25.263 23.5672C26.0514 22.9151 26.5749 22.0018 26.737 20.9961L26.8373 20.3734H27.4568C28.8493 20.3734 29.9822 19.2489 29.9822 17.8667V16.1601C29.9822 14.9328 29.0888 13.9094 27.9137 13.6953L28.6976 8.83156C29.0536 6.62291 28.4193 4.38011 26.9572 2.67807C25.4952 0.97603 23.3641 0 21.1106 0H14.8894C12.6359 0 10.5049 0.976128 9.04278 2.67807C7.58063 4.38001 6.94628 6.62291 7.30235 8.83156L8.08627 13.6953C6.91129 13.9095 6.01784 14.9328 6.01784 16.1601V17.8667C6.01784 19.2489 7.15071 20.3734 8.54317 20.3734H9.16269L9.26303 20.9961C9.42515 22.0019 9.94868 22.9151 10.737 23.5672L11.176 23.9302V26.2496C11.1573 26.2494 11.1386 26.2486 11.1198 26.2489C10.5723 26.2576 10.0644 26.5327 9.76076 26.9848L8.89321 28.2765L3.02494 30.024C1.21561 30.5629 0 32.1846 0 34.0597V37.4934C9.88541e-05 38.8755 1.13297 40 2.52553 40H33.4747C34.8671 40 36 38.8755 36 37.4934V34.0597C36 32.1846 34.7844 30.5628 32.9751 30.024ZM24.8541 27.8488C24.8823 27.8491 24.8925 27.8643 24.8979 27.8724L25.6842 29.0431L23.708 33.6203C23.7049 33.6273 23.6977 33.6442 23.6724 33.6508C23.647 33.6575 23.6326 33.6466 23.6263 33.642L21.6926 32.2024L24.8095 27.8711C24.8153 27.8631 24.8267 27.8477 24.8541 27.8488ZM28.3702 16.1599V17.8665C28.3702 18.3665 27.9605 18.7732 27.4568 18.7732H27.0952L27.6589 15.2763C28.0656 15.3679 28.3702 15.7289 28.3702 16.1599ZM27.1059 8.57879L26.3586 13.2156L25.6814 8.90633C26.1988 8.61932 26.697 8.30621 27.1717 7.96552C27.1601 8.16982 27.1389 8.3744 27.1059 8.57879ZM8.54337 18.7732C8.03971 18.7732 7.62996 18.3665 7.62996 17.8665V16.1599C7.62996 15.7289 7.93462 15.368 8.34121 15.2764L8.90488 18.7733H8.54337V18.7732ZM9.18414 10.3786L8.894 8.5787C8.61276 6.83338 9.11405 5.06099 10.2695 3.71601C11.4249 2.37114 13.1088 1.5997 14.8895 1.5997H21.1107C22.8914 1.5997 24.5753 2.37104 25.7307 3.71601C26.3306 4.41426 26.7523 5.22809 26.9815 6.09314C24.8065 7.94001 21.6329 9.21561 17.5398 9.88628C14.246 10.4259 11.0705 10.4405 9.18414 10.3786ZM9.71212 13.653V13.6531L9.44235 11.9797C9.80396 11.9894 10.1948 11.9957 10.611 11.9969L9.76718 13.653H9.71212ZM10.8551 20.7431L9.96993 15.2531H10.2627C10.5667 15.2531 10.8449 15.0834 10.982 14.8142L12.4322 11.968C15.8952 11.8491 20.3668 11.3199 24.1677 9.65442L24.9411 14.5764C25.0024 14.9659 25.3403 15.253 25.7375 15.253H26.0303L25.4108 19.096C25.2228 19.3058 23.265 21.333 18.0002 21.333C17.5551 21.333 17.1943 21.6912 17.1943 22.133C17.1943 22.5749 17.5551 22.933 18.0002 22.933C21.3792 22.933 23.5901 22.1639 24.9376 21.4213C24.775 21.7725 24.5349 22.0864 24.2312 22.3377L20.7808 25.1918C20.4628 25.4549 20.0597 25.5997 19.6457 25.5997H16.3549C15.941 25.5997 15.5378 25.4549 15.2198 25.1918L11.7694 22.3379C11.2804 21.9334 10.9557 21.3671 10.8551 20.7431ZM11.1022 27.8724C11.1076 27.8643 11.1179 27.8492 11.1461 27.8488C11.1733 27.8477 11.1848 27.8631 11.1907 27.871L14.3076 32.2023L12.3739 33.6419C12.3675 33.6465 12.353 33.6575 12.3278 33.6507C12.3026 33.644 12.2954 33.6272 12.2922 33.6202L10.316 29.043L11.1022 27.8724ZM6.01804 38.4001H2.52553C2.02186 38.4 1.61211 37.9933 1.61211 37.4934V34.0597C1.61211 33.6011 1.73084 33.1678 1.94169 32.7896L5.38004 35.6338C5.78554 35.9691 6.01804 36.4619 6.01804 36.9859V38.4001ZM7.62996 38.4V36.9857C7.62996 35.9855 7.186 35.0446 6.41198 34.4045L3.13269 31.6918C3.24676 31.6394 3.3649 31.5931 3.48846 31.5563L8.94561 29.9313L10.8104 34.2504C11.013 34.7196 11.4143 35.0645 11.9112 35.1963C12.0548 35.2344 12.2003 35.2531 12.3447 35.2531C12.7001 35.2531 13.0481 35.1395 13.3408 34.9217L15.0439 33.6537L16.8369 38.3998H7.62996V38.4ZM16.1756 32.0924C16.1733 32.0864 16.1705 32.081 16.1681 32.0751C16.162 32.0601 16.1556 32.0452 16.1485 32.0303C16.1432 32.0191 16.1374 32.0082 16.1316 31.9974C16.1254 31.9858 16.1191 31.9743 16.1121 31.9629C16.1043 31.9497 16.0959 31.9372 16.0874 31.9246C16.0838 31.9192 16.0807 31.9135 16.0767 31.9082L12.784 27.3326C12.7866 27.3065 12.7881 27.2801 12.7881 27.2533V25.2635L14.1875 26.4213C14.7947 26.9235 15.5644 27.2001 16.3546 27.2001H19.6454C20.4356 27.2001 21.2053 26.9235 21.8125 26.4213L23.2119 25.2636V27.2534C23.2119 27.2801 23.2133 27.3065 23.216 27.3327L19.9233 31.9083C19.9196 31.9134 19.9166 31.9189 19.9131 31.9241C19.9043 31.9369 19.8958 31.9499 19.8877 31.9634C19.8809 31.9745 19.8746 31.9858 19.8686 31.9973C19.8627 32.0083 19.8569 32.0193 19.8515 32.0306C19.8444 32.0453 19.838 32.0602 19.832 32.0751C19.8296 32.081 19.8268 32.0864 19.8245 32.0924L18 36.9215L16.1756 32.0924ZM28.3703 36.9858V38.4001H19.1633L20.9563 33.654L22.6594 34.922C22.952 35.1398 23.3001 35.2534 23.6555 35.2534C23.7998 35.2534 23.9454 35.2347 24.089 35.1966C24.586 35.0647 24.9872 34.7199 25.1898 34.2506L27.0546 29.9315L32.5118 31.5565C32.6352 31.5934 32.7534 31.6398 32.8675 31.6921L29.5882 34.4048C28.8142 35.0447 28.3703 35.9856 28.3703 36.9858ZM34.3881 37.4934C34.3881 37.9933 33.9783 38.4 33.4747 38.4H29.9822V36.9857C29.9822 36.4618 30.2147 35.969 30.6202 35.6336L34.0585 32.7894C34.2694 33.1675 34.3881 33.6007 34.3881 34.0595V37.4934Z" fill="#F5F5FC"/>
</svg>
