<svg width="50" height="40" viewBox="0 0 50 40" fill="none" xmlns="http://www.w3.org/2000/svg">
<path d="M46.7119 0H3.28809C1.4751 0 0 1.47577 0 3.2898V30.0261C0 31.8401 1.4751 33.3159 3.28809 33.3159H18.2677L17.6283 38.4334H16.6493C16.217 38.4334 15.8664 38.784 15.8664 39.2167C15.8664 39.6492 16.2169 40 16.6493 40H33.3508C33.7831 40 34.1337 39.6493 34.1337 39.2167C34.1337 38.7841 33.7832 38.4334 33.3508 38.4334H32.3718L31.7324 33.3159H46.7119C48.525 33.3159 50 31.84 50 30.0261V3.2898C50 1.47577 48.5249 0 46.7119 0ZM19.2062 38.4334L19.8456 33.3159H30.1545L30.7938 38.4334H19.2062ZM48.4343 30.0261C48.4343 30.9763 47.6616 31.7493 46.7119 31.7493H3.28809C2.33838 31.7493 1.56572 30.9763 1.56572 30.0261V3.2898C1.56572 2.3396 2.33838 1.56654 3.28809 1.56654H46.7119C47.6616 1.56654 48.4343 2.3396 48.4343 3.2898V30.0261Z" fill="#F5F5FC"/>
<path d="M45.877 3.34198H4.12324C3.69092 3.34198 3.34033 3.69265 3.34033 4.1253V29.1905C3.34033 29.623 3.69082 29.9738 4.12324 29.9738H45.8769C46.3092 29.9738 46.6598 29.6231 46.6598 29.1905V4.1253C46.6598 3.69275 46.3093 3.34198 45.877 3.34198ZM45.094 28.4073H4.90615V4.90861H45.094V28.4073Z" fill="#F5F5FC"/>
<path d="M24.1648 6.68402H9.13345C7.78081 6.68402 6.68042 7.78498 6.68042 9.13832V24.1775C6.68042 25.5308 7.78081 26.6318 9.13345 26.6318H24.1648C25.5174 26.6318 26.6178 25.5308 26.6178 24.1775V9.13832C26.6178 7.78498 25.5174 6.68402 24.1648 6.68402ZM18.3714 25.0652H14.9268V24.0569L15.3871 24.3332C15.7763 24.567 16.2127 24.6837 16.6492 24.6837C17.0856 24.6837 17.522 24.5669 17.9113 24.3332L18.3715 24.0569V25.0652H18.3714ZM19.2054 21.7294L17.1056 22.9901C16.8241 23.1592 16.4742 23.1592 16.1926 22.9901L14.0928 21.7294C13.5771 21.4198 13.2566 20.8536 13.2566 20.2517V17.467C13.2566 17.4387 13.2791 17.4164 13.309 17.4148C16.415 17.2532 18.1367 16.6445 19.0905 16.0308L20.0263 16.9671C20.0361 16.9769 20.0416 16.9901 20.0416 17.0039V18.3289C20.0416 19.2791 19.269 20.0522 18.3193 20.0522H16.6492C16.2168 20.0522 15.8663 20.4029 15.8663 20.8355C15.8663 21.2682 16.2167 21.6188 16.6492 21.6188H18.3193C18.7961 21.6188 19.2492 21.516 19.6585 21.3325C19.5332 21.4885 19.381 21.624 19.2054 21.7294ZM19.9373 25.0652V23.1171L20.0111 23.0728C20.9958 22.4817 21.6075 21.4008 21.6075 20.2518V17.004C21.6075 16.5716 21.4392 16.1651 21.1335 15.8594L19.708 14.4331C19.5612 14.2862 19.3621 14.2037 19.1544 14.2037C18.9468 14.2037 18.7477 14.2861 18.6009 14.4331C17.8498 15.1846 15.8413 15.7144 13.228 15.8504C12.3662 15.8953 11.6911 16.6054 11.6911 17.4671V20.2518C11.6911 21.4008 12.3028 22.4817 13.2875 23.0728L13.3613 23.1171V25.0652H10.7547C10.7909 19.9998 11.1846 16.6963 12.0182 14.4209C12.9465 11.8871 14.3749 10.757 16.6495 10.757C18.9241 10.757 20.3524 11.887 21.2807 14.4209C22.1143 16.6962 22.5081 19.9997 22.5442 25.0652H19.9373ZM25.052 24.1775C25.052 24.667 24.654 25.0653 24.1647 25.0653H24.1095C24.0719 19.8036 23.6486 16.3334 22.7504 13.8819C21.5939 10.7252 19.5981 9.1906 16.6491 9.1906C13.7 9.1906 11.7042 10.7251 10.5477 13.8819C9.64956 16.3334 9.22622 19.8036 9.18862 25.0653H9.13345C8.64419 25.0653 8.24614 24.667 8.24614 24.1775V9.13832C8.24614 8.64881 8.64419 8.25056 9.13345 8.25056H24.1648C24.6541 8.25056 25.0521 8.64881 25.0521 9.13832V24.1775H25.052Z" fill="#F5F5FC"/>
<path d="M31.6803 8.35504H30.0102C29.5779 8.35504 29.2273 8.70571 29.2273 9.13836C29.2273 9.57101 29.5778 9.92168 30.0102 9.92168H31.6803C32.1126 9.92168 32.4632 9.57101 32.4632 9.13836C32.4632 8.70571 32.1127 8.35504 31.6803 8.35504Z" fill="#F5F5FC"/>
<path d="M31.6803 11.6971H30.0102C29.5779 11.6971 29.2273 12.0478 29.2273 12.4804C29.2273 12.913 29.5778 13.2637 30.0102 13.2637H31.6803C32.1126 13.2637 32.4632 12.913 32.4632 12.4804C32.4632 12.0478 32.1127 11.6971 31.6803 11.6971Z" fill="#F5F5FC"/>
<path d="M31.6803 15.0392H30.0102C29.5779 15.0392 29.2273 15.3899 29.2273 15.8225C29.2273 16.2551 29.5778 16.6058 30.0102 16.6058H31.6803C32.1126 16.6058 32.4632 16.2551 32.4632 15.8225C32.4632 15.3899 32.1127 15.0392 31.6803 15.0392Z" fill="#F5F5FC"/>
<path d="M41.7013 8.35504H35.0207C34.5884 8.35504 34.2378 8.70571 34.2378 9.13836C34.2378 9.57101 34.5883 9.92168 35.0207 9.92168H41.7013C42.1336 9.92168 42.4842 9.57101 42.4842 9.13836C42.4842 8.70571 42.1336 8.35504 41.7013 8.35504Z" fill="#F5F5FC"/>
<path d="M41.7013 11.6971H35.0207C34.5884 11.6971 34.2378 12.0478 34.2378 12.4804C34.2378 12.913 34.5883 13.2637 35.0207 13.2637H41.7013C42.1336 13.2637 42.4842 12.913 42.4842 12.4804C42.4842 12.0478 42.1336 11.6971 41.7013 11.6971Z" fill="#F5F5FC"/>
<path d="M41.7013 15.0392H35.0207C34.5884 15.0392 34.2378 15.3899 34.2378 15.8225C34.2378 16.2551 34.5883 16.6058 35.0207 16.6058H41.7013C42.1336 16.6058 42.4842 16.2551 42.4842 15.8225C42.4842 15.3899 42.1336 15.0392 41.7013 15.0392Z" fill="#F5F5FC"/>
<path d="M40.8662 18.3812H30.8453C29.9531 18.3812 29.2273 19.1073 29.2273 20V25.013C29.2273 25.9057 29.9531 26.6318 30.8453 26.6318H40.8662C41.7583 26.6318 42.4841 25.9057 42.4841 25.013V20C42.4841 19.1073 41.7583 18.3812 40.8662 18.3812ZM40.9183 25.013C40.9183 25.0419 40.895 25.0652 40.8662 25.0652H30.8453C30.8165 25.0652 30.7931 25.0419 30.7931 25.013V20C30.7931 19.9712 30.8165 19.9478 30.8453 19.9478H40.8662C40.895 19.9478 40.9183 19.9712 40.9183 20V25.013Z" fill="#F5F5FC"/>
</svg>
