<svg width="40" height="42" viewBox="0 0 40 42" fill="none" xmlns="http://www.w3.org/2000/svg">
<path fill-rule="evenodd" clip-rule="evenodd" d="M12.9917 17H5.294C4.16451 16.9909 3.07754 17.4229 2.27227 18.201C1.46697 18.9791 1.00931 20.0395 1 21.149V36.8517C1.0209 39.1614 2.943 41.0175 5.294 40.998H12.9917C14.1211 41.0074 15.2082 40.5754 16.0135 39.7973C16.8189 39.0193 17.2765 37.9588 17.2857 36.8491V21.149C17.2765 20.0395 16.8189 18.9791 16.0135 18.201C15.2082 17.4229 14.1211 16.9909 12.9917 17Z" stroke="#F5F5FC" stroke-width="2" stroke-linecap="round" stroke-linejoin="round"/>
<path fill-rule="evenodd" clip-rule="evenodd" d="M12.9917 1.00161H5.294C2.99028 0.938841 1.06946 2.71965 1 4.98262V7.68639C1.06946 9.94938 2.99028 11.7302 5.294 11.6674H12.9917C15.2953 11.7302 17.2162 9.94938 17.2857 7.68639V4.98262C17.2162 2.71965 15.2953 0.938841 12.9917 1.00161Z" stroke="#F5F5FC" stroke-width="2" stroke-linecap="round" stroke-linejoin="round"/>
<path fill-rule="evenodd" clip-rule="evenodd" d="M27.0084 24.9999H34.7034C35.8333 25.0098 36.9209 24.5781 37.7268 23.8C38.5327 23.0217 38.9909 21.961 39.0001 20.8509V5.15078C38.9909 4.04122 38.5332 2.98072 37.7279 2.20263C36.9226 1.42453 35.8355 0.992567 34.7061 1.00179H27.0084C25.8789 0.992567 24.7919 1.42453 23.9865 2.20263C23.1812 2.98072 22.7236 4.04122 22.7144 5.15078V20.8509C22.7236 21.9604 23.1812 23.0209 23.9865 23.799C24.7919 24.577 25.8789 25.009 27.0084 24.9999Z" stroke="#F5F5FC" stroke-width="2" stroke-linecap="round" stroke-linejoin="round"/>
<path fill-rule="evenodd" clip-rule="evenodd" d="M27.0084 40.9983H34.7034C37.0081 41.0626 38.9306 39.2814 39.0001 37.0173V34.3135C38.9306 32.0505 37.0097 30.2699 34.7061 30.3325H27.0084C24.7047 30.2699 22.7838 32.0505 22.7144 34.3135V37.0147C22.7822 39.2787 24.7037 41.061 27.0084 40.9983Z" stroke="#F5F5FC" stroke-width="2" stroke-linecap="round" stroke-linejoin="round"/>
</svg>
