<svg width="44" height="42" viewBox="0 0 44 42" fill="none" xmlns="http://www.w3.org/2000/svg">
<path d="M1 20.4872C1 12.7513 1 8.88337 3.40322 6.48012C5.80646 4.0769 9.67438 4.0769 17.4103 4.0769H25.6154C33.3512 4.0769 37.2193 4.0769 39.6224 6.48012C42.0256 8.88337 42.0256 12.7513 42.0256 20.4872V24.5897C42.0256 32.3255 42.0256 36.1936 39.6224 38.5967C37.2193 41 33.3512 41 25.6154 41H17.4103C9.67438 41 5.80646 41 3.40322 38.5967C1 36.1936 1 32.3255 1 24.5897V20.4872Z" stroke="#F5F5FC" stroke-width="2"/>
<path d="M11.2559 4.07692V1" stroke="#F5F5FC" stroke-width="2" stroke-linecap="round"/>
<path d="M31.7695 4.07692V1" stroke="#F5F5FC" stroke-width="2" stroke-linecap="round"/>
<path d="M1 14.333H42.0256" stroke="#F5F5FC" stroke-width="2" stroke-linecap="round"/>
<path d="M30.7429 32.7945C32.4423 32.7945 33.8199 31.4169 33.8199 29.7175C33.8199 28.0182 32.4423 26.6406 30.7429 26.6406C29.0436 26.6406 27.666 28.0182 27.666 29.7175C27.666 31.4169 29.0436 32.7945 30.7429 32.7945Z" stroke="#F5F5FC" stroke-width="2"/>
</svg>
