<svg width="42" height="42" viewBox="0 0 42 42" fill="none" xmlns="http://www.w3.org/2000/svg">
<path d="M16 24.5004C16 26.4404 17.5 28.0004 19.34 28.0004H23.1C24.7 28.0004 26 26.6404 26 24.9404C26 23.1204 25.2 22.4604 24.02 22.0404L18 19.9404C16.82 19.5204 16.02 18.8804 16.02 17.0404C16.02 15.3605 17.32 13.9805 18.92 13.9805H22.68C24.52 13.9805 26.02 15.5405 26.02 17.4804" stroke="#F5F5FC" stroke-width="2" stroke-linecap="round" stroke-linejoin="round"/>
<path d="M21 12V30" stroke="#F5F5FC" stroke-width="2" stroke-linecap="round" stroke-linejoin="round"/>
<path d="M41 21C41 32.04 32.04 41 21 41C9.96 41 1 32.04 1 21C1 9.96 9.96 1 21 1" stroke="#F5F5FC" stroke-width="2" stroke-linecap="round" stroke-linejoin="round"/>
<path d="M41 9V1H33" stroke="#F5F5FC" stroke-width="2" stroke-linecap="round" stroke-linejoin="round"/>
<path d="M31 11L41 1" stroke="#F5F5FC" stroke-width="2" stroke-linecap="round" stroke-linejoin="round"/>
</svg>
