<svg width="42" height="42" viewBox="0 0 42 42" fill="none" xmlns="http://www.w3.org/2000/svg">
<path d="M3.92894 38.071C6.85786 41 11.5719 41 21 41C30.428 41 35.1422 41 38.071 38.071C41 35.1422 41 30.428 41 21C41 11.5719 41 6.85786 38.071 3.92894C35.1422 1 30.428 1 21 1C11.5719 1 6.85786 1 3.92894 3.92894C1 6.85786 1 11.5719 1 21C1 30.428 1 35.1422 3.92894 38.071Z" stroke="#F5F5FC" stroke-width="2"/>
<path d="M33 14H25M33 26H25M33 32H25M17 14H13M13 14H9M13 14V10M13 14V18M16 26L13 29M13 29L10 32M13 29L10 26M13 29L16 32" stroke="#F5F5FC" stroke-width="2" stroke-linecap="round"/>
</svg>
