<svg width="42" height="42" viewBox="0 0 42 42" fill="none" xmlns="http://www.w3.org/2000/svg">
<path d="M1 25C1 17.4576 1 13.6863 3.34314 11.3431C5.6863 9 9.45752 9 17 9H25C32.5424 9 36.3138 9 38.6568 11.3431C41 13.6863 41 17.4576 41 25C41 32.5424 41 36.3138 38.6568 38.6568C36.3138 41 32.5424 41 25 41H17C9.45752 41 5.6863 41 3.34314 38.6568C1 36.3138 1 32.5424 1 25Z" stroke="#F5F5FC" stroke-width="2"/>
<path d="M29 9C29 5.22876 29 3.34314 27.8284 2.17158C26.6568 1 24.7712 1 21 1C17.2288 1 15.3431 1 14.1716 2.17158C13 3.34314 13 5.22876 13 9" stroke="#F5F5FC" stroke-width="2"/>
<path d="M21 31.6666C23.2092 31.6666 25 30.1742 25 28.3334C25 26.4924 23.2092 25 21 25C18.7908 25 17 23.5076 17 21.6666C17 19.8258 18.7908 18.3334 21 18.3334M21 31.6666C18.7908 31.6666 17 30.1742 17 28.3334M21 31.6666V33M21 18.3334V17M21 18.3334C23.2092 18.3334 25 19.8258 25 21.6666" stroke="#F5F5FC" stroke-width="2" stroke-linecap="round"/>
</svg>
