<svg width="42" height="42" viewBox="0 0 42 42" fill="none" xmlns="http://www.w3.org/2000/svg">
<path d="M1 20.6293C1 12.9471 1 9.10609 3.34314 6.71954C5.6863 4.33301 9.45752 4.33301 17 4.33301H25C32.5424 4.33301 36.3138 4.33301 38.6568 6.71954C41 9.10609 41 12.9471 41 20.6293V24.7034C41 32.3855 41 36.2267 38.6568 38.6131C36.3138 40.9997 32.5424 40.9997 25 40.9997H17C9.45752 40.9997 5.6863 40.9997 3.34314 38.6131C1 36.2267 1 32.3855 1 24.7034V20.6293Z" stroke="#F5F5FC" stroke-width="2"/>
<path d="M11 4.33333V1" stroke="#F5F5FC" stroke-width="2" stroke-linecap="round"/>
<path d="M31 4.33333V1" stroke="#F5F5FC" stroke-width="2" stroke-linecap="round"/>
<path d="M1 14.333H41" stroke="#F5F5FC" stroke-width="2" stroke-linecap="round"/>
<path d="M33.2218 30.6296C33.2218 31.8569 32.2269 32.8518 30.9996 32.8518C29.7722 32.8518 28.7773 31.8569 28.7773 30.6296C28.7773 29.4022 29.7722 28.4073 30.9996 28.4073C32.2269 28.4073 33.2218 29.4022 33.2218 30.6296Z" fill="#F5F5FC"/>
<path d="M33.2218 22.8521C33.2218 24.0794 32.2269 25.0743 30.9996 25.0743C29.7722 25.0743 28.7773 24.0794 28.7773 22.8521C28.7773 21.6248 29.7722 20.6299 30.9996 20.6299C32.2269 20.6299 33.2218 21.6248 33.2218 22.8521Z" fill="#F5F5FC"/>
<path d="M23.2218 30.6296C23.2218 31.8569 22.2269 32.8518 20.9996 32.8518C19.7722 32.8518 18.7773 31.8569 18.7773 30.6296C18.7773 29.4022 19.7722 28.4073 20.9996 28.4073C22.2269 28.4073 23.2218 29.4022 23.2218 30.6296Z" fill="#F5F5FC"/>
<path d="M23.2218 22.8521C23.2218 24.0794 22.2269 25.0743 20.9996 25.0743C19.7722 25.0743 18.7773 24.0794 18.7773 22.8521C18.7773 21.6248 19.7722 20.6299 20.9996 20.6299C22.2269 20.6299 23.2218 21.6248 23.2218 22.8521Z" fill="#F5F5FC"/>
<path d="M13.2218 30.6296C13.2218 31.8569 12.2269 32.8518 10.9996 32.8518C9.77228 32.8518 8.77734 31.8569 8.77734 30.6296C8.77734 29.4022 9.77228 28.4073 10.9996 28.4073C12.2269 28.4073 13.2218 29.4022 13.2218 30.6296Z" fill="#F5F5FC"/>
<path d="M13.2218 22.8521C13.2218 24.0794 12.2269 25.0743 10.9996 25.0743C9.77228 25.0743 8.77734 24.0794 8.77734 22.8521C8.77734 21.6248 9.77228 20.6299 10.9996 20.6299C12.2269 20.6299 13.2218 21.6248 13.2218 22.8521Z" fill="#F5F5FC"/>
</svg>
