<svg width="42" height="42" viewBox="0 0 42 42" fill="none" xmlns="http://www.w3.org/2000/svg">
<path d="M41 1L25.4444 14.3333L16.5556 5.44444L1 18.7778M4.33333 41C2.49238 41 1 39.5076 1 37.6667V33.2222C1 31.3813 2.49238 29.8889 4.33333 29.8889C6.17429 29.8889 7.66667 31.3813 7.66667 33.2222V37.6667C7.66667 39.5076 6.17429 41 4.33333 41ZM19.8889 41C18.048 41 16.5556 39.5076 16.5556 37.6667V26.5556C16.5556 24.7147 18.048 23.2222 19.8889 23.2222C21.7298 23.2222 23.2222 24.7147 23.2222 26.5556V37.6667C23.2222 39.5076 21.7298 41 19.8889 41ZM35.4444 41C33.6036 41 32.1111 39.5076 32.1111 37.6667V31C32.1111 29.1591 33.6036 27.6667 35.4444 27.6667C37.2853 27.6667 38.7778 29.1591 38.7778 31V37.6667C38.7778 39.5076 37.2853 41 35.4444 41Z" stroke="#F5F5FC" stroke-width="2" stroke-linecap="round" stroke-linejoin="round"/>
</svg>
