<svg width="42" height="42" viewBox="0 0 42 42" fill="none" xmlns="http://www.w3.org/2000/svg">
<path d="M1 41H41M1 34.3333H41M7.27407 1.00082C8.19622 1.81518 8.77778 3.00633 8.77778 4.33333C8.77778 6.78793 6.78793 8.77778 4.33333 8.77778C3.00633 8.77778 1.81518 8.19622 1.00082 7.27407M7.27407 1.00082C7.53653 1 7.81502 1 8.11111 1H33.8889C34.1849 1 34.4636 1 34.726 1.00082M7.27407 1.00082C5.33004 1.00684 4.26433 1.05762 3.42671 1.48442C2.59042 1.91051 1.91051 2.59042 1.48442 3.42671C1.05762 4.26433 1.00684 5.33004 1.00082 7.27407M1.00082 7.27407C1 7.53653 1 7.81502 1 8.11111V20.5556C1 20.8516 1 21.1302 1.00082 21.3927M34.726 1.00082C33.8038 1.81518 33.2222 3.00633 33.2222 4.33333C33.2222 6.78793 35.212 8.77778 37.6667 8.77778C38.9935 8.77778 40.1849 8.19622 40.9991 7.27407M34.726 1.00082C36.67 1.00684 37.7358 1.05762 38.5733 1.48442C39.4096 1.91051 40.0895 2.59042 40.5155 3.42671C40.9424 4.26433 40.9931 5.33004 40.9991 7.27407M1.00082 21.3927C1.81518 20.4704 3.00633 19.8889 4.33333 19.8889C6.78793 19.8889 8.77778 21.8787 8.77778 24.3333C8.77778 25.6602 8.19622 26.8516 7.27407 27.6658M1.00082 21.3927C1.00684 23.3367 1.05762 24.4022 1.48442 25.24C1.91051 26.0762 2.59042 26.7562 3.42671 27.1822C4.26433 27.6091 5.33004 27.6598 7.27407 27.6658M7.27407 27.6658C7.53653 27.6667 7.81502 27.6667 8.11111 27.6667H33.8889C34.1849 27.6667 34.4636 27.6667 34.726 27.6658M34.726 27.6658C33.8038 26.8516 33.2222 25.6602 33.2222 24.3333C33.2222 21.8787 35.212 19.8889 37.6667 19.8889C38.994 19.8889 40.1855 20.4709 41 21.3936M34.726 27.6658C36.67 27.6598 37.7358 27.6091 38.5733 27.1822C39.4096 26.7562 40.0895 26.0762 40.5155 25.24C40.9422 24.4024 40.994 23.3369 41 21.3936M41 21.3936C41.0009 21.1309 41 20.852 41 20.5556V8.11111C41 7.81502 41 7.53653 40.9991 7.27407M25.4444 14.3333C25.4444 16.788 23.4547 18.7778 21 18.7778C18.5453 18.7778 16.5556 16.788 16.5556 14.3333C16.5556 11.8787 18.5453 9.88889 21 9.88889C23.4547 9.88889 25.4444 11.8787 25.4444 14.3333Z" stroke="#F5F5FC" stroke-width="2" stroke-linecap="round" stroke-linejoin="round"/>
</svg>
