<svg width="45" height="42" viewBox="0 0 45 42" fill="none" xmlns="http://www.w3.org/2000/svg">
<path d="M43.1053 36.7891H26.2632M1 36.7891H17.8421" stroke="#F5F5FC" stroke-width="2" stroke-linecap="round"/>
<path d="M22.0527 32.5795V26.2637" stroke="#F5F5FC" stroke-width="2" stroke-linecap="round"/>
<path d="M22.0523 41C24.3777 41 26.2629 39.1149 26.2629 36.7895C26.2629 34.4641 24.3777 32.579 22.0523 32.579C19.7269 32.579 17.8418 34.4641 17.8418 36.7895C17.8418 39.1149 19.7269 41 22.0523 41Z" stroke="#F5F5FC" stroke-width="2"/>
<path d="M1 19.9476C1 16.4595 3.82769 13.6318 7.31579 13.6318H36.7895C40.2777 13.6318 43.1053 16.4595 43.1053 19.9476C43.1053 23.4358 40.2777 26.2634 36.7895 26.2634H7.31579C3.82769 26.2634 1 23.4358 1 19.9476Z" stroke="#F5F5FC" stroke-width="2"/>
<path d="M1 7.31579C1 3.82769 3.82769 1 7.31579 1H36.7895C40.2777 1 43.1053 3.82769 43.1053 7.31579C43.1053 10.8039 40.2777 13.6316 36.7895 13.6316H7.31579C3.82769 13.6316 1 10.8039 1 7.31579Z" stroke="#F5F5FC" stroke-width="2"/>
<path d="M24.1582 7.31543H36.7898" stroke="#F5F5FC" stroke-width="2" stroke-linecap="round"/>
<path d="M24.1582 19.9474H36.7898" stroke="#F5F5FC" stroke-width="2" stroke-linecap="round"/>
<path d="M9.42069 9.42147C10.5834 9.42147 11.526 8.47891 11.526 7.3162C11.526 6.1535 10.5834 5.21094 9.42069 5.21094C8.25799 5.21094 7.31543 6.1535 7.31543 7.3162C7.31543 8.47891 8.25799 9.42147 9.42069 9.42147Z" fill="#F5F5FC"/>
<path d="M9.42069 22.0523C10.5834 22.0523 11.526 21.1098 11.526 19.9471C11.526 18.7844 10.5834 17.8418 9.42069 17.8418C8.25799 17.8418 7.31543 18.7844 7.31543 19.9471C7.31543 21.1098 8.25799 22.0523 9.42069 22.0523Z" fill="#F5F5FC"/>
</svg>
