<svg width="42" height="41" viewBox="0 0 42 41" fill="none" xmlns="http://www.w3.org/2000/svg">
<path d="M26.2 21.6607V27.1207C26.2 31.6807 24.38 33.5007 19.82 33.5007H14.38C9.84 33.5007 8 31.6807 8 27.1207V21.6607C8 17.1207 9.82 15.3007 14.38 15.3007H19.84C24.38 15.3007 26.2 17.1207 26.2 21.6607Z" stroke="#F5F5FC" stroke-width="2" stroke-linecap="round" stroke-linejoin="round"/>
<path d="M34.0008 13.8609V19.3209C34.0008 23.8809 32.1808 25.7009 27.6208 25.7009C26.8366 25.7009 26.2008 25.0651 26.2008 24.2809V21.6609C26.2008 17.1209 24.3808 15.3009 19.8208 15.3009H17.2408C16.4455 15.3009 15.8008 14.6561 15.8008 13.8609C15.8008 9.30085 17.6208 7.50085 22.1808 7.50085H27.6408C32.1808 7.50085 34.0008 9.32085 34.0008 13.8609Z" stroke="#F5F5FC" stroke-width="2" stroke-linecap="round" stroke-linejoin="round"/>
<path d="M41 26.5009C41 32.8411 36.7994 38.1883 31.0257 39.915C29.3046 40.4296 28.1758 38.5412 29.1 37.0009" stroke="#F5F5FC" stroke-width="2" stroke-linecap="round" stroke-linejoin="round"/>
<path d="M1 14.5009C1 8.16056 5.20059 2.81339 10.9743 1.08676C12.6954 0.572089 13.8242 2.46052 12.9 4.00085" stroke="#F5F5FC" stroke-width="2" stroke-linecap="round" stroke-linejoin="round"/>
</svg>
