<svg width="44" height="42" viewBox="0 0 44 42" fill="none" xmlns="http://www.w3.org/2000/svg">
<path d="M9.99999 34.6842C5.02944 34.6842 1 30.6922 1 25.7678C1 20.8434 5.02944 16.8514 9.99999 16.8514C10.5966 16.8514 11.1797 16.9088 11.7439 17.0187M11.7439 17.0187C11.2628 15.7322 11 14.3408 11 12.8885C11 6.32267 16.3726 1 23 1C29.1734 1 34.2579 5.61834 34.9257 11.5579M11.7439 17.0187C12.9292 17.2493 14.0311 17.7103 15 18.3528M27.0001 11.5836C28.2511 11.1455 29.5974 10.9071 31 10.9071C32.3748 10.9071 33.6955 11.1362 34.9257 11.5579M34.9257 11.5579C39.6253 13.1689 43 17.5918 43 22.7956C43 28.4945 38.9525 33.2571 33.55 34.4152" stroke="#F5F5FC" stroke-width="2" stroke-linecap="round"/>
<path d="M22.0008 28.3684V41M22.0008 28.3684L26.2008 32.5789M22.0008 28.3684L17.8008 32.5789" stroke="#F5F5FC" stroke-width="2" stroke-linecap="round" stroke-linejoin="round"/>
</svg>
