<svg width="51" height="41" viewBox="0 0 51 41" fill="none" xmlns="http://www.w3.org/2000/svg">
<path d="M50.4606 26.2656C50.4606 20.0199 44.3858 13.7147 40.8778 8.54734C40.4522 7.92054 39.9865 7.31681 39.4819 6.74012C35.9311 2.67924 30.8075 0.349976 25.4263 0.349976C20.0364 0.349976 14.914 2.67423 11.3708 6.72637C10.4794 7.74564 9.71183 8.84914 9.07324 10.0149C6.52276 14.6709 1.61075 19.5405 0.530725 24.7382C0.443851 25.1563 0.391344 25.5873 0.376078 26.0281C0.372296 26.1373 0.349609 26.2464 0.349609 26.3557C0.349609 30.6253 3.79036 34.0986 8.02004 34.0986C11.5696 34.0986 14.7456 36.1087 17.7177 38.0492C19.9507 39.5071 22.6062 40.35 25.4263 40.35C32.4866 40.35 38.5242 35.0726 39.4657 28.0735L40.4134 21.0307C40.996 16.7073 39.682 12.3438 36.8101 9.06063C33.9382 5.77741 29.7898 3.89325 25.4276 3.89325C21.0654 3.89325 16.9157 5.77616 14.0451 9.06063C11.1745 12.3451 9.85669 16.7073 10.4393 21.0307L11.387 28.0735C11.531 29.1456 11.7964 30.1764 12.1662 31.1542C12.4642 31.9423 11.9172 32.8483 11.0747 32.8483C10.6343 32.8483 10.2318 32.5903 10.0722 32.1799C9.61255 30.9977 9.28579 29.7255 9.10528 28.3811L8.15757 21.3408C8.09241 20.8582 8.05129 20.3756 8.02814 19.8937C8.01774 19.6772 8.10218 19.4611 8.0813 19.2454C8.06938 19.1047 8.01829 18.9682 8.01984 18.8271C8.06518 14.7028 9.55926 10.6953 12.3097 7.5503C15.6167 3.76947 20.3965 1.6015 25.4251 1.6015C30.4474 1.6015 35.2272 3.77447 38.5405 7.56405C41.2653 10.6792 42.7719 14.639 42.8451 18.7254C42.8478 18.876 42.8021 19.024 42.7902 19.1741C42.7712 19.3827 42.842 19.593 42.8328 19.8022C42.8098 20.3254 42.7635 20.8494 42.6939 21.3733L41.7462 28.4511C41.4899 30.359 40.9873 32.1219 40.4009 33.1672C40.2934 33.3609 40.2946 33.5972 40.4071 33.7898C40.5197 33.9811 40.7247 34.0986 40.9472 34.0986H42.8914C47.0648 34.0986 50.4606 30.6166 50.4606 26.2656ZM12.6248 27.906L11.6771 20.8645C11.1445 16.8986 12.3485 12.8965 14.9841 9.88456C17.6171 6.87265 21.423 5.14477 25.4263 5.14477C29.4297 5.14477 33.2343 6.87265 35.8686 9.88456C38.503 12.8977 39.707 16.8986 39.1756 20.8645L38.2279 27.9073C37.3665 34.2874 31.864 39.0997 25.4263 39.0997C22.7328 39.0997 20.2052 38.2558 18.1121 36.8074C16.7881 35.8913 17.5937 34.0986 19.2037 34.0986C19.2392 34.0986 19.2703 34.113 19.2779 34.1476C19.5877 35.5473 20.8371 36.5992 22.3294 36.5992H27.3305C29.0546 36.5992 30.4562 35.1963 30.4562 33.4735C30.4562 31.7506 29.0546 30.3478 27.3305 30.3478H22.3294C20.8371 30.3478 19.5877 31.3996 19.2779 32.7994C19.2703 32.834 19.2392 32.8483 19.2037 32.8483C16.2125 32.8483 13.2054 31.3152 12.6958 28.3677C12.6694 28.2148 12.6457 28.0609 12.6248 27.906ZM20.454 33.4735C20.454 32.4395 21.2954 31.5981 22.3294 31.5981H27.3305C28.3645 31.5981 29.2059 32.4395 29.2059 33.4735C29.2059 34.5074 28.3645 35.3489 27.3305 35.3489H22.3294C21.2954 35.3489 20.454 34.5074 20.454 33.4735ZM8.6567 31.9331C8.80685 32.3752 8.48703 32.8483 8.02004 32.8483C4.56679 32.8483 1.74071 30.0764 1.60543 26.6165C1.60133 26.5117 1.62114 26.4068 1.62114 26.3019C1.62114 23.7123 3.15714 21.4984 5.41653 20.4956C6.12003 20.1833 6.81756 20.7455 6.9198 21.5084L7.8675 28.5486C8.02558 29.7308 8.29273 30.8611 8.6567 31.9331ZM42.8902 32.8483C42.4315 32.8483 42.1152 32.3829 42.2547 31.9459C42.5693 30.9607 42.8244 29.8108 42.9839 28.6174L43.9316 21.5396C44.0458 20.7034 44.8333 20.0825 45.5943 20.4472C47.7562 21.4831 49.2103 23.7077 49.2103 26.3369C49.2103 29.9277 46.3747 32.8483 42.8902 32.8483Z" fill="#F5F5FC" stroke="#F5F5FC" stroke-width="0.7"/>
</svg>
