<svg width="24" height="24" viewBox="0 0 24 24" fill="none" xmlns="http://www.w3.org/2000/svg">
<path fill-rule="evenodd" clip-rule="evenodd" d="M24 24H18.6957V15.563C18.6957 13.3547 17.866 11.8471 16.0414 11.8471C14.6458 11.8471 13.8697 12.8644 13.5085 13.8449C13.373 14.1968 13.3942 14.6871 13.3942 15.1773V24H8.13924C8.13924 24 8.20697 9.05475 8.13924 7.69623H13.3942V10.255C13.7046 9.13621 15.3838 7.53948 18.0635 7.53948C21.388 7.53948 24 9.88462 24 14.9345V24ZM2.82502 5.65692H2.79116C1.09784 5.65692 0 4.41057 0 2.83076C0 1.2202 1.13029 0 2.85748 0C4.58325 0 5.6444 1.21714 5.67827 2.82616C5.67827 4.40598 4.58325 5.65692 2.82502 5.65692ZM0.605347 7.69623H5.28316V24H0.605347V7.69623Z" fill="#46A8B5"/>
</svg>
