<svg width="35" height="46" viewBox="0 0 35 46" fill="none" xmlns="http://www.w3.org/2000/svg">
<path d="M17.5 1C26.6257 1 34 8.28949 34 17.25C34 20.7738 32.8291 24.011 30.873 26.6699L30.834 26.7227L30.8027 26.7803C30.7606 26.8568 30.7331 26.9251 30.7158 26.9727C30.7134 26.9793 30.7111 26.9861 30.709 26.9922L19.0986 44.1602C18.7459 44.6815 18.1464 45 17.5 45C16.8536 45 16.2541 44.6815 15.9014 44.1602L4.29004 26.9912C4.28777 26.9847 4.28579 26.9778 4.2832 26.9707C4.26593 26.9235 4.2388 26.8558 4.19727 26.7803L4.16602 26.7227L4.12695 26.6699L3.76953 26.1641C2.02922 23.6047 1 20.5535 1 17.25C1 8.28949 8.3743 1 17.5 1ZM17.5 10.5C13.7399 10.5 10.667 13.5088 10.667 17.25C10.667 20.9912 13.7399 24 17.5 24C21.2601 24 24.333 20.9912 24.333 17.25C24.333 13.5088 21.2601 10.5 17.5 10.5Z" stroke="#2F5565" stroke-width="2"/>
</svg>
