<svg width="52" height="46" viewBox="0 0 52 46" fill="none" xmlns="http://www.w3.org/2000/svg">
<path d="M51.8069 18.9047L29.1856 1.0429C28.3351 0.371253 27.2036 0 26 0C24.7964 0 23.6649 0.369713 22.8144 1.0429L0 19.0556V46H52V19.0587L51.8069 18.9062V18.9047ZM3.33193 18.7475L24.2853 2.20287C25.2021 1.47885 26.7998 1.47885 27.7167 2.20287L49.6552 19.5285L34.7044 31.3347L29.1856 26.9767C28.3351 26.3051 27.2036 25.9338 26 25.9338C24.7964 25.9338 23.6649 26.3051 22.8144 26.9767L17.2137 31.3979L2.26291 19.5917L3.33193 18.7475ZM15.7428 32.5579L15.5887 32.6811L15.5867 32.6795L2.08148 43.3442V21.7699L15.7447 32.5579H15.7428ZM3.73965 44.3563L4.85744 43.4736H4.86134L24.2853 28.1367C25.2021 27.4127 26.7998 27.4127 27.7167 28.1367L48.2604 44.3563H3.73965ZM49.9205 22.3368V43.3458L36.1753 32.4962L49.9205 21.6421V22.3368Z" fill="#2F5565"/>
</svg>
