<svg width="46" height="46" viewBox="0 0 46 46" fill="none" xmlns="http://www.w3.org/2000/svg">
<path d="M5.10938 1H9.5498C10.5623 0.998415 11.5402 1.36918 12.2969 2.04199C13.0064 2.67297 13.475 3.52846 13.627 4.46191L13.6533 4.64941L14.3936 11.1016L14.3945 11.1025C14.4658 11.7176 14.3966 12.3409 14.1934 12.9258C13.9901 13.5105 13.6579 14.0422 13.2207 14.4805L13.2197 14.4814L8.49414 19.2275L7.98242 19.7412L8.31152 20.3867C12.1046 27.8406 18.1636 33.9001 25.6172 37.6934L26.2637 38.0225L26.7773 37.5088L31.4912 32.7959L31.4922 32.7969C31.9307 32.3592 32.4626 32.0265 33.0479 31.8232C33.633 31.62 34.2568 31.5514 34.8721 31.623H34.874L41.3809 32.3672H41.3828C42.3813 32.4796 43.3011 32.9571 43.9697 33.709C44.6379 34.4606 45.0052 35.4328 45 36.4385V40.8896C45.0036 41.443 44.8945 41.992 44.6797 42.502C44.4649 43.0118 44.1483 43.4725 43.75 43.8564C43.3517 44.2404 42.8797 44.5395 42.3623 44.7354C41.8473 44.9303 41.2982 45.0188 40.748 44.9961C30.422 44.3411 20.6886 39.9438 13.3721 32.627C6.05548 25.3099 1.65768 15.5759 1.00293 5.24902C0.980654 4.69952 1.0698 4.15105 1.26465 3.63672C1.46062 3.11955 1.75972 2.64716 2.14355 2.24902C2.52752 1.85083 2.98924 1.53499 3.49902 1.32031C4.00866 1.10573 4.55642 0.996472 5.10938 1Z" stroke="#2F5565" stroke-width="2"/>
</svg>
