<svg width="25" height="25" viewBox="0 0 25 25" fill="none" xmlns="http://www.w3.org/2000/svg">
<path fill-rule="evenodd" clip-rule="evenodd" d="M24.5806 24.5806H19.148V15.9396C19.148 13.6778 18.2982 12.1337 16.4295 12.1337C15.0002 12.1337 14.2053 13.1757 13.8353 14.1799C13.6965 14.5403 13.7182 15.0424 13.7182 15.5445V24.5806H8.33615C8.33615 24.5806 8.40553 9.27382 8.33615 7.88243H13.7182V10.5031C14.0362 9.35724 15.756 7.72188 18.5005 7.72188C21.9055 7.72188 24.5806 10.1238 24.5806 15.2958V24.5806ZM2.89336 5.79378H2.85869C1.1244 5.79378 0 4.51728 0 2.89924C0 1.24972 1.15764 0 2.92661 0C4.69414 0 5.78096 1.24659 5.81564 2.89453C5.81564 4.51257 4.69413 5.79378 2.89336 5.79378ZM0.619992 7.88243H5.41098V24.5806H0.619992V7.88243Z" fill="#46A8B5"/>
</svg>
