<svg width="20" height="20" viewBox="0 0 20 20" fill="none" xmlns="http://www.w3.org/2000/svg">
<path d="M18.0409 13.6405L15.2119 13.3172C14.8793 13.2784 14.5422 13.3154 14.2259 13.4253C13.9095 13.5352 13.6221 13.7151 13.3851 13.9517L11.335 16.0008C8.17625 14.3933 5.6086 11.8255 4.00116 8.66661L6.05574 6.60304C6.29214 6.36613 6.47198 6.07888 6.58184 5.76274C6.69171 5.4466 6.72876 5.10973 6.69022 4.77727L6.36798 1.97139C6.30495 1.42793 6.04418 0.926653 5.63536 0.563101C5.22653 0.199548 4.69825 -0.00086851 4.15117 4.59078e-05H2.22438C1.925 -0.00188375 1.62834 0.0570381 1.35241 0.173236C1.07648 0.289434 0.827035 0.460486 0.619211 0.676011C0.411386 0.891536 0.249516 1.14704 0.143421 1.42702C0.0373267 1.707 -0.0107797 2.00562 0.00202116 2.30476C0.292305 6.90212 2.2495 11.2357 5.50663 14.493C8.76376 17.7503 13.0971 19.7076 17.6943 19.9979C17.9935 20.0109 18.2922 19.9629 18.5723 19.8569C18.8524 19.7508 19.108 19.589 19.3236 19.3811C19.5393 19.1733 19.7104 18.9238 19.8267 18.6477C19.9429 18.3717 20.0019 18.075 20 17.7754V15.8452C20.0028 15.3006 19.8042 14.7742 19.4424 14.3672C19.0805 13.9602 18.5821 13.7014 18.0409 13.6405Z" fill="#11111C"/>
</svg>
