<svg width="23" height="20" viewBox="0 0 23 20" fill="none" xmlns="http://www.w3.org/2000/svg">
<path d="M20.7 0H2.3C1.69056 0.00197841 1.1066 0.266006 0.675665 0.734419C0.244725 1.20283 0.00182014 1.83757 0 2.5V17.5C0.00182014 18.1624 0.244725 18.7972 0.675665 19.2656C1.1066 19.734 1.69056 19.998 2.3 20H20.7C21.3094 19.998 21.8934 19.734 22.3243 19.2656C22.7553 18.7972 22.9982 18.1624 23 17.5V2.5C22.9982 1.83757 22.7553 1.20283 22.3243 0.734419C21.8934 0.266006 21.3094 0.00197841 20.7 0ZM20.24 5.3125L12.719 10.425C12.3544 10.676 11.9316 10.8093 11.5 10.8093C11.0684 10.8093 10.6456 10.676 10.281 10.425L2.76 5.3125C2.65127 5.23863 2.55698 5.14221 2.48253 5.02873C2.40808 4.91526 2.35492 4.78695 2.32609 4.65115C2.29726 4.51534 2.29331 4.37469 2.31449 4.23723C2.33566 4.09977 2.38154 3.96819 2.4495 3.85C2.51746 3.73181 2.60617 3.62933 2.71057 3.5484C2.81496 3.46748 2.933 3.4097 3.05794 3.37836C3.18288 3.34702 3.31228 3.34273 3.43875 3.36575C3.56521 3.38877 3.68627 3.43863 3.795 3.5125L11.5 8.75L19.205 3.5125C19.3137 3.43863 19.4348 3.38877 19.5613 3.36575C19.6877 3.34273 19.8171 3.34702 19.9421 3.37836C20.067 3.4097 20.185 3.46748 20.2894 3.5484C20.3938 3.62933 20.4825 3.73181 20.5505 3.85C20.6185 3.96819 20.6643 4.09977 20.6855 4.23723C20.7067 4.37469 20.7027 4.51534 20.6739 4.65115C20.6451 4.78695 20.5919 4.91526 20.5175 5.02873C20.443 5.14221 20.3487 5.23863 20.24 5.3125Z" fill="#11111C"/>
</svg>
