<svg width="11" height="24" viewBox="0 0 11 24" fill="none" xmlns="http://www.w3.org/2000/svg">
<path d="M10.8992 0.173003V3.98H8.91825C8.84171 3.96841 8.76452 3.96273 8.68725 3.963C8.22822 3.96368 7.78681 4.15579 7.45342 4.5C7.20181 4.90766 7.06861 5.38856 7.07117 5.88C7.07008 5.94175 7.07223 6.00352 7.07758 6.065V8.782H10.7763L10.2868 13.051H7.08308V24H3.21933V13.05H0V8.782H3.21933V5.638C3.21292 5.538 3.21017 5.416 3.21017 5.296C3.20374 3.8885 3.6749 2.52818 4.53292 1.477C5.39892 0.532767 6.57277 0.00162407 7.79717 2.7221e-06C7.876 2.7221e-06 7.95483 2.72226e-06 8.03367 0.00700272H8.02175C8.12533 2.72226e-06 8.25 2.7221e-06 8.36733 2.7221e-06C9.24769 -0.000475248 10.1271 0.061992 11 0.187003L10.8983 0.175003L10.8992 0.173003Z" fill="#46A8B5"/>
</svg>
