<svg width="147" height="15" viewBox="0 0 147 15" fill="none" xmlns="http://www.w3.org/2000/svg">
<path d="M1 6.36377C0.447715 6.36377 0 6.81148 0 7.36377C0 7.91605 0.447715 8.36377 1 8.36377V7.36377V6.36377ZM146.707 8.07088C147.098 7.68035 147.098 7.04719 146.707 6.65666L140.343 0.292702C139.953 -0.0978227 139.319 -0.0978227 138.929 0.292702C138.538 0.683226 138.538 1.31639 138.929 1.70692L144.586 7.36377L138.929 13.0206C138.538 13.4111 138.538 14.0443 138.929 14.4348C139.319 14.8254 139.953 14.8254 140.343 14.4348L146.707 8.07088ZM1 7.36377V8.36377H146V7.36377V6.36377H1V7.36377Z" fill="#77D6E3"/>
</svg>
