<svg width="40" height="30" viewBox="0 0 40 30" fill="none" xmlns="http://www.w3.org/2000/svg">
<path d="M9.33375 0C4.17883 0 0 4.23715 0 9.46438C0 14.6898 4.17883 18.9269 9.33375 18.9269C9.33375 18.9269 9.28859 22.4425 6.47109 27.5023C6.15813 28.5161 6.71602 29.5958 7.7168 29.9112C8.42688 30.1376 9.17406 29.9175 9.65656 29.4052C16.1351 22.2224 18.671 13.7687 18.671 9.46438C18.671 4.23715 14.4923 0 9.33375 0Z" fill="#46A8B5"/>
<path d="M30.6627 0C25.5078 0 21.3289 4.23723 21.3289 9.46438C21.3289 14.6898 25.5078 18.9269 30.6627 18.9269C30.6627 18.9269 30.6175 22.4425 27.8 27.5023C27.4871 28.5161 28.045 29.5958 29.0457 29.9112C29.7558 30.1376 30.503 29.9175 30.9854 29.4052C37.464 22.2224 40 13.7687 40 9.46438C40 4.23715 35.8212 0 30.6627 0Z" fill="#46A8B5"/>
</svg>
