<svg width="28" height="42" viewBox="0 0 28 42" fill="none" xmlns="http://www.w3.org/2000/svg">
<path d="M14 34.3333H14.0217M11.8333 7.66667H16.1667M7.93333 41H20.0667C22.4936 41 23.7071 41 24.634 40.5156C25.4493 40.0896 26.1123 39.4096 26.5277 38.5733C27 37.6227 27 36.378 27 33.8889V8.11111C27 5.622 27 4.37742 26.5277 3.42671C26.1123 2.59042 25.4493 1.91051 24.634 1.48442C23.7071 1 22.4936 1 20.0667 1H7.93333C5.50645 1 4.29299 1 3.36604 1.48442C2.55066 1.91051 1.88775 2.59042 1.47231 3.42671C1 4.37742 1 5.62198 1 8.11111V33.8889C1 36.378 1 37.6227 1.47231 38.5733C1.88775 39.4096 2.55066 40.0896 3.36604 40.5156C4.29299 41 5.50643 41 7.93333 41Z" stroke="#F5F5FC" stroke-width="2" stroke-linecap="round" stroke-linejoin="round"/>
</svg>
