<svg width="42" height="42" viewBox="0 0 42 42" fill="none" xmlns="http://www.w3.org/2000/svg">
<path d="M21 41C32.0457 41 41 32.0457 41 21C41 9.9543 32.0457 1 21 1C9.9543 1 1 9.9543 1 21C1 32.0457 9.9543 41 21 41Z" stroke="#F5F5FC" stroke-width="2"/>
<path d="M21 9V33" stroke="#F5F5FC" stroke-width="2" stroke-linecap="round"/>
<path d="M27 16C27 13.2386 24.3138 11 21 11C17.6862 11 15 13.2386 15 16C15 18.7614 17.6862 21 21 21C24.3138 21 27 23.2386 27 26C27 28.7614 24.3138 31 21 31C17.6862 31 15 28.7614 15 26" stroke="#F5F5FC" stroke-width="2" stroke-linecap="round"/>
</svg>
