<svg width="40" height="40" viewBox="0 0 40 40" fill="none" xmlns="http://www.w3.org/2000/svg">
<path d="M0.536499 9.4635C0.260356 9.4635 0.036499 9.68736 0.036499 9.9635V39.5C0.036499 39.7761 0.260357 40 0.536499 40H17.9609C18.237 40 18.4609 39.7761 18.4609 39.5V9.9635C18.4609 9.68736 18.237 9.4635 17.9609 9.4635H0.536499ZM16.9256 38.2536C16.9256 38.5297 16.7017 38.7536 16.4256 38.7536H2.07189C1.79575 38.7536 1.57189 38.5297 1.57189 38.2536V11.2099C1.57189 10.9338 1.79575 10.7099 2.07189 10.7099H16.4256C16.7017 10.7099 16.9256 10.9338 16.9256 11.2099V38.2536Z" fill="#F5F5FC"/>
<path d="M19.5956 16.8068C19.3194 16.8068 19.0956 17.0306 19.0956 17.3068V17.6122C19.0956 17.8883 19.3194 18.1122 19.5956 18.1122H21.6082V31.9003H19.5956C19.3194 31.9003 19.0956 32.1241 19.0956 32.4003V32.7057C19.0956 32.9818 19.3194 33.2057 19.5956 33.2057H28.6459C28.922 33.2057 29.1459 32.9818 29.1459 32.7057V17.3068C29.1459 17.0306 28.922 16.8068 28.6459 16.8068H19.5956ZM24.6232 31.1968C24.6232 31.5853 24.3083 31.9003 23.9197 31.9003C23.5312 31.9003 23.2162 31.5853 23.2162 31.1968V18.8157C23.2162 18.4271 23.5312 18.1122 23.9197 18.1122C24.3083 18.1122 24.6232 18.4271 24.6232 18.8157V31.1968ZM27.5378 31.247C27.5378 31.6078 27.2453 31.9003 26.8845 31.9003C26.5238 31.9003 26.2313 31.6078 26.2313 31.247V18.7654C26.2313 18.4046 26.5238 18.1122 26.8845 18.1122C27.2453 18.1122 27.5378 18.4046 27.5378 18.7654V31.247Z" fill="#F5F5FC"/>
<path d="M3.5 12C3.22386 12 3 12.2239 3 12.5V32.5C3 32.7761 3.22386 33 3.5 33H14.5C14.7761 33 15 32.7761 15 32.5V12.5C15 12.2239 14.7761 12 14.5 12H3.5ZM14 31.5C14 31.7761 13.7761 32 13.5 32H4.5C4.22386 32 4 31.7761 4 31.5V13.5C4 13.2239 4.22386 13 4.5 13H13.5C13.7761 13 14 13.2239 14 13.5V31.5Z" fill="#F5F5FC"/>
<path d="M14.5 36H3.5C3.22386 36 3 36.2239 3 36.5C3 36.7761 3.22386 37 3.5 37H14.5C14.7761 37 15 36.7761 15 36.5C15 36.2239 14.7761 36 14.5 36Z" fill="#F5F5FC"/>
<path d="M12.5 20H8.5C8.22386 20 8 20.2239 8 20.5C8 20.7761 8.22386 21 8.5 21H12.5C12.7761 21 13 20.7761 13 20.5C13 20.2239 12.7761 20 12.5 20Z" fill="#F5F5FC"/>
<path d="M12.5 14H8.5C8.22386 14 8 14.2239 8 14.5C8 14.7761 8.22386 15 8.5 15H12.5C12.7761 15 13 14.7761 13 14.5C13 14.2239 12.7761 14 12.5 14Z" fill="#F5F5FC"/>
<path d="M12.5 29H8.5C8.22386 29 8 29.2239 8 29.5C8 29.7761 8.22386 30 8.5 30H12.5C12.7761 30 13 29.7761 13 29.5C13 29.2239 12.7761 29 12.5 29Z" fill="#F5F5FC"/>
<path d="M12.5 23H5.5C5.22386 23 5 23.2239 5 23.5C5 23.7761 5.22386 24 5.5 24H12.5C12.7761 24 13 23.7761 13 23.5C13 23.2239 12.7761 23 12.5 23Z" fill="#F5F5FC"/>
<path d="M12.5 17H5.5C5.22386 17 5 17.2239 5 17.5C5 17.7761 5.22386 18 5.5 18H12.5C12.7761 18 13 17.7761 13 17.5C13 17.2239 12.7761 17 12.5 17Z" fill="#F5F5FC"/>
<path d="M12.5 26H5.5C5.22386 26 5 26.2239 5 26.5C5 26.7761 5.22386 27 5.5 27H12.5C12.7761 27 13 26.7761 13 26.5C13 26.2239 12.7761 26 12.5 26Z" fill="#F5F5FC"/>
<path d="M35.3438 3.2025L35.3307 3.20226L35.3268 3.20219C35.3243 3.20219 35.3219 3.20234 35.3194 3.20234L25.9227 3.26034C25.6459 3.26205 25.4232 3.48826 25.4258 3.76501L25.4287 4.07044C25.4313 4.34595 25.6562 4.56745 25.9317 4.56575L31.7705 4.52969C31.0747 5.18781 30.6533 6.04015 30.6533 6.97086V11.3332C30.6533 12.7144 29.351 13.7965 27.6885 13.7965C26.026 13.7965 24.7237 12.7144 24.7237 11.3332V3.85484C24.7237 1.82562 22.7242 0.166719 20.2308 0.0899218L6.17794 0C3.64629 0 1.50748 1.76531 1.50748 3.85484V7.5875H0.5C0.223858 7.5875 0 7.81135 0 8.0875V8.39289C0 8.66903 0.223858 8.89289 0.5 8.89289H17.892C18.1681 8.89289 18.392 8.66903 18.392 8.39289V8.08757C18.392 7.81143 18.1681 7.58757 17.892 7.58757H16.9849V3.85484C16.9849 2.51719 18.319 1.42586 19.9741 1.39312L20.1957 1.39453C21.8187 1.4557 23.1156 2.53578 23.1156 3.85484V11.3331C23.1156 12.2487 23.5037 13.1119 24.2127 13.793L19.5962 13.7885C19.3202 13.7883 19.0962 14.0117 19.0957 14.2878L19.0953 14.5931C19.0948 14.8694 19.3185 15.0936 19.5948 15.0939L27.672 15.1018C27.6775 15.1018 27.6829 15.1018 27.6884 15.1018C28.928 15.1018 30.084 14.7076 30.9435 13.992C31.7934 13.2845 32.2613 12.3401 32.2613 11.333V6.97086C32.2613 5.61601 33.6295 4.51336 35.3139 4.50781L35.3335 4.50773C37.0207 4.51078 38.392 5.61445 38.392 6.97093V9.53515C38.392 9.81129 38.1681 10.0352 37.892 10.0352H33.5653C33.2892 10.0352 33.0653 10.259 33.0653 10.5352V10.8405C33.0653 11.1167 33.2892 11.3405 33.5653 11.3405H39.5C39.7761 11.3405 40 11.1167 40 10.8405V6.97086C40.0001 4.89742 37.9129 3.21 35.3438 3.2025ZM15.377 3.85484V7.5875H3.11563V3.85484C3.11563 2.47281 4.51801 1.30531 6.17168 1.30531L16.5396 1.37125C15.8168 2.035 15.377 2.90406 15.377 3.85484Z" fill="#F5F5FC"/>
</svg>
