<svg width="42" height="42" viewBox="0 0 42 42" fill="none" xmlns="http://www.w3.org/2000/svg">
<path d="M1 3C1 1.89544 1.89544 1 3 1H39C40.1046 1 41 1.89544 41 3V23C41 24.1046 40.1046 25 39 25H3C1.89544 25 1 24.1046 1 23V3Z" stroke="#F5F5FC" stroke-width="2" stroke-linecap="round" stroke-linejoin="round"/>
<path d="M41 33H1" stroke="#F5F5FC" stroke-width="2" stroke-linecap="round" stroke-linejoin="round"/>
<path d="M41 41H1" stroke="#F5F5FC" stroke-width="2" stroke-linecap="round" stroke-linejoin="round"/>
<path d="M21 17C23.2091 17 25 15.2091 25 13C25 10.7909 23.2091 9 21 9C18.7909 9 17 10.7909 17 13C17 15.2091 18.7909 17 21 17Z" stroke="#F5F5FC" stroke-width="2" stroke-linecap="round" stroke-linejoin="round"/>
</svg>
