<svg width="42" height="42" viewBox="0 0 42 42" fill="none" xmlns="http://www.w3.org/2000/svg">
<path d="M21 1C17.5259 1.00373 14.1125 1.91155 11.0954 3.6342C8.07841 5.35685 5.56165 7.83503 3.79259 10.8251C2.02353 13.8151 1.06307 17.2141 1.00566 20.6878C0.948252 24.1615 1.79586 27.5903 3.46515 30.6372L1.00003 41L11.3628 38.5349C14.0356 40.0011 17.0082 40.8369 20.0535 40.9784C23.0987 41.12 26.136 40.5635 28.9333 39.3515C31.7305 38.1395 34.2137 36.304 36.193 33.9855C38.1724 31.6669 39.5955 28.9265 40.3536 25.9737C41.1118 23.021 41.1848 19.934 40.5673 16.9486C39.9498 13.9633 38.658 11.1586 36.7906 8.74897C34.9232 6.33931 32.5297 4.38843 29.7929 3.04541C27.0561 1.70238 24.0486 1.00276 21 1ZM11 10.0884H16.4512C16.6979 10.0884 16.9345 10.1864 17.109 10.3608C17.2834 10.5353 17.3814 10.7719 17.3814 11.0186C17.3509 12.2592 17.5594 13.494 17.9954 14.6558C18.1832 15.0447 18.2244 15.4883 18.1117 15.9052C17.9989 16.3221 17.7396 16.6844 17.3814 16.9256L15.4744 18.786C16.32 20.4373 17.4256 21.9417 18.7489 23.2419C20.0385 24.5867 21.5368 25.7144 23.1861 26.5814L25.0465 24.6744C25.9768 23.7442 26.4047 23.7442 27.3163 24.0605C28.4781 24.4965 29.713 24.7049 30.9535 24.6744C31.1966 24.6857 31.4267 24.7874 31.5987 24.9594C31.7708 25.1315 31.8724 25.3616 31.8838 25.6047V31.0558C31.8724 31.2989 31.7708 31.529 31.5987 31.701C31.4267 31.8731 31.1966 31.9747 30.9535 31.986C25.4815 31.7476 20.2946 29.4792 16.4047 25.6233C12.5427 21.7375 10.2732 16.5481 10.0419 11.0744C10.0441 10.8184 10.1449 10.573 10.3234 10.3894C10.5018 10.2057 10.7442 10.0979 11 10.0884Z" stroke="#F5F5FC" stroke-width="2" stroke-linecap="round" stroke-linejoin="round"/>
</svg>
