<svg width="36" height="42" viewBox="0 0 36 42" fill="none" xmlns="http://www.w3.org/2000/svg">
<path d="M13.7309 31.5268L11.6573 32.5249C7.44776 33.6777 5.34301 34.2542 4.20846 33.0409C3.07392 31.8276 3.66093 29.6283 4.83497 25.2293L5.13872 24.0914C5.47234 22.8413 5.63915 22.2163 5.55528 21.5965C5.47139 20.9767 5.1463 20.4323 4.49614 19.3436L3.90422 18.3523C1.61623 14.5207 0.47226 12.6049 1.2363 11.0806C2.00033 9.55621 4.16638 9.4328 8.49851 9.186L9.61928 9.12215C10.8503 9.05202 11.4659 9.01695 12.0026 8.73322C12.5393 8.4495 12.9365 7.94925 13.7309 6.94874L14.4541 6.03784C17.2495 2.517 18.6474 0.756555 20.2541 1.02771C21.8608 1.29887 22.6126 3.42203 24.1158 7.66834L24.5047 8.76691C24.9321 9.97358 25.1456 10.5769 25.5613 11.0214C25.9769 11.4658 26.5475 11.701 27.6886 12.1715L28.7273 12.5998C32.7431 14.2553 34.7508 15.0831 34.9799 16.7751C35.1752 18.2186 33.9654 19.4754 31.4926 21.5965" stroke="#F5F5FC" stroke-width="2"/>
<path d="M24.9099 19.2931C22.8134 16.8078 21.7649 15.5651 20.5599 15.7565C19.355 15.9479 18.7912 17.4466 17.6637 20.444L17.3719 21.2194C17.0515 22.0712 16.8913 22.4971 16.5795 22.8108C16.268 23.1247 15.84 23.2906 14.9841 23.6228L14.205 23.9251C11.1932 25.0937 9.68736 25.6779 9.51562 26.8722C9.34388 28.0666 10.62 29.08 13.1722 31.1066L13.8325 31.631C14.5578 32.207 14.9205 32.495 15.1303 32.8891C15.3402 33.2832 15.3736 33.739 15.4405 34.6503L15.5013 35.4802C15.7365 38.6878 15.8543 40.2916 16.9531 40.8383C18.0521 41.3851 19.4045 40.5127 22.1094 38.7678L22.8092 38.3164C23.5778 37.8207 23.9622 37.5727 24.4036 37.5025C24.8451 37.4324 25.2937 37.548 26.1907 37.7794L27.0075 37.9899C30.1647 38.8036 31.7433 39.2106 32.5942 38.3541C33.445 37.4977 33.0049 35.9451 32.1243 32.84L31.8965 32.0367C31.6462 31.1543 31.5213 30.7131 31.5842 30.2756C31.6471 29.8381 31.8908 29.4539 32.3785 28.6853L32.8224 27.9857C34.5383 25.2809 35.3964 23.9287 34.8233 22.8527C34.2502 21.7767 32.6258 21.6895 29.3767 21.5154L28.536 21.4701C27.6127 21.4207 27.1512 21.396 26.7485 21.1956C26.346 20.9954 26.0481 20.6424 25.4522 19.936L24.9099 19.2931Z" stroke="#F5F5FC" stroke-width="2"/>
</svg>
