<svg width="40" height="42" viewBox="0 0 40 42" fill="none" xmlns="http://www.w3.org/2000/svg">
<path fill-rule="evenodd" clip-rule="evenodd" d="M12.7813 17.0001H5.21867C4.10899 16.991 3.04109 17.4231 2.24995 18.2012C1.45877 18.9793 1.00915 20.0398 1 21.1494V36.8532C1.02053 39.1631 2.90891 41.0193 5.21867 40.9998H12.7813C13.8909 41.0092 14.9589 40.5772 15.7501 39.7991C16.5413 39.0209 16.9909 37.9604 17 36.8506V21.1494C16.9909 20.0398 16.5413 18.9793 15.7501 18.2012C14.9589 17.4231 13.8909 16.991 12.7813 17.0001Z" stroke="#F5F5FC" stroke-width="2" stroke-linecap="round" stroke-linejoin="round"/>
<path fill-rule="evenodd" clip-rule="evenodd" d="M12.7813 1.00166H5.21867C2.95536 0.936944 1.06824 2.773 1 5.10617V7.89383C1.06824 10.227 2.95536 12.0631 5.21867 11.9983H12.7813C15.0445 12.0631 16.9317 10.227 17 7.89383V5.10617C16.9317 2.773 15.0445 0.936944 12.7813 1.00166Z" stroke="#F5F5FC" stroke-width="2" stroke-linecap="round" stroke-linejoin="round"/>
<path fill-rule="evenodd" clip-rule="evenodd" d="M27.2187 24.9998H34.7787C35.8888 25.0097 36.9573 24.578 37.7491 23.7999C38.5408 23.0215 38.9909 21.9607 39 20.8506V5.14941C38.9909 4.03977 38.5413 2.9792 37.7501 2.20106C36.9589 1.42291 35.8909 0.990918 34.7813 1.00014H27.2187C26.1091 0.990918 25.0411 1.42291 24.2499 2.20106C23.4587 2.9792 23.0091 4.03977 23 5.14941V20.8506C23.0091 21.9602 23.4587 23.0207 24.2499 23.7988C25.0411 24.5769 26.1091 25.0089 27.2187 24.9998Z" stroke="#F5F5FC" stroke-width="2" stroke-linecap="round" stroke-linejoin="round"/>
<path fill-rule="evenodd" clip-rule="evenodd" d="M27.2187 40.9983H34.7787C37.0429 41.0645 38.9317 39.2281 39 36.8938V34.1061C38.9317 31.7729 37.0445 29.937 34.7813 30.0017H27.2187C24.9555 29.937 23.0683 31.7729 23 34.1061V36.891C23.0667 39.2253 24.9544 41.0629 27.2187 40.9983Z" stroke="#F5F5FC" stroke-width="2" stroke-linecap="round" stroke-linejoin="round"/>
</svg>
