<svg width="42" height="42" viewBox="0 0 42 42" fill="none" xmlns="http://www.w3.org/2000/svg">
<path d="M13.6233 36.8974H2C1.44772 36.8974 1 36.4497 1 35.8974V2C1 1.44771 1.44772 1 2 1H26.8376C27.1055 1 27.3622 1.1075 27.5502 1.2984L33.5331 7.37474C33.7172 7.56181 33.8205 7.81381 33.8205 8.07634V13.8205" stroke="#F5F5FC" stroke-width="2" stroke-linecap="round"/>
<path d="M8.54004 10.3438H27.6105" stroke="#F5F5FC" stroke-width="2" stroke-linecap="round"/>
<path d="M8.54004 19.3601H17.9848" stroke="#F5F5FC" stroke-width="2" stroke-linecap="round"/>
<path d="M8.54004 28.3767H12.5878" stroke="#F5F5FC" stroke-width="2" stroke-linecap="round"/>
<path d="M31.0814 40.9996C36.5591 40.9996 40.9996 36.5591 40.9996 31.0814C40.9996 25.6037 36.5591 21.1631 31.0814 21.1631C25.6037 21.1631 21.1631 25.6037 21.1631 31.0814C21.1631 36.5591 25.6037 40.9996 31.0814 40.9996Z" stroke="#F5F5FC" stroke-width="2"/>
<path d="M27.4756 31.9834L29.4279 33.9356C29.8219 34.3297 30.4754 34.2756 30.7993 33.8222L34.6889 28.3767" stroke="#F5F5FC" stroke-width="2" stroke-linecap="round" stroke-linejoin="round"/>
</svg>
