<svg width="73" height="42" viewBox="0 0 73 42" fill="none" xmlns="http://www.w3.org/2000/svg">
<path d="M52 41C63.0457 41 72 32.0457 72 21C72 9.95431 63.0457 1 52 1C40.9543 1 32 9.95431 32 21C32 32.0457 40.9543 41 52 41Z" stroke="#F5F5FC" stroke-width="2" stroke-linecap="round" stroke-linejoin="round"/>
<path d="M24 13.7901C24 11.6969 22.433 10 20.5 10C18.567 10 17 11.6969 17 13.7901V28.2099C17 30.3031 18.567 32 20.5 32C22.433 32 24 30.3031 24 28.2099V13.7901Z" stroke="#F5F5FC" stroke-width="2" stroke-linecap="round" stroke-linejoin="round"/>
<path d="M9 4.7106C9 2.66129 7.20914 1 5 1C2.79086 1 1 2.66129 1 4.7106V37.2894C1 39.3387 2.79086 41 5 41C7.20914 41 9 39.3387 9 37.2894V4.7106Z" stroke="#F5F5FC" stroke-width="2" stroke-linecap="round" stroke-linejoin="round"/>
</svg>
