<svg width="37" height="41" viewBox="0 0 37 41" fill="none" xmlns="http://www.w3.org/2000/svg">
<path d="M18.1447 40.25C18.0657 40.25 17.988 40.2305 17.9157 40.194L0.503151 31.0796C0.347778 30.9975 0.25 30.84 0.25 30.6668V9.83383C0.25 9.66196 0.347778 9.5031 0.503151 9.42107L17.9157 0.30664C18.059 0.23112 18.2291 0.23112 18.3738 0.30664L35.7863 9.42107C35.9417 9.5031 36.0395 9.66196 36.0395 9.83383V30.6668C36.0395 30.84 35.9417 30.9975 35.7863 31.0796L18.3738 40.194C18.3014 40.2318 18.2238 40.25 18.1447 40.25ZM1.21439 30.3869L18.1447 39.2487L35.0751 30.3869V10.1138L18.1447 1.25194L1.21439 10.1138V30.3869ZM25.0723 31.1356C23.9311 31.1356 22.8595 30.7033 22.0518 29.9194L15.1257 23.1852L15.8074 22.5211L22.735 29.2554C23.3591 29.8635 24.1896 30.1968 25.0723 30.1968C26.8952 30.1968 28.378 28.7567 28.378 26.9833C28.378 26.1252 28.0351 25.318 27.4095 24.7112L24.5003 21.8831L25.1834 21.2204L28.0927 24.0471C28.899 24.8323 29.3437 25.8739 29.3437 26.9833C29.3423 29.2736 27.427 31.1356 25.0723 31.1356ZM11.2186 31.1356C8.86385 31.1356 6.94847 29.2723 6.94847 26.9846C6.94847 25.8739 7.39316 24.8323 8.19949 24.0484L13.7862 18.6175L14.468 19.2803L8.88126 24.7125C8.25709 25.3193 7.91286 26.1265 7.91286 26.9846C7.91286 28.7567 9.3956 30.1981 11.2199 30.1981C12.1039 30.1981 12.933 29.8648 13.5585 29.2567L16.4664 26.4286L17.1482 27.0927L14.2403 29.9207C13.4313 30.7033 12.3598 31.1356 11.2186 31.1356ZM24.8419 28.5314C23.8373 28.5314 23.0202 27.7372 23.0202 26.7606C23.0202 26.4429 23.1073 26.1422 23.26 25.8843L19.4493 22.18C19.0743 22.4209 18.6269 22.5602 18.1447 22.5602C16.8348 22.5602 15.7686 21.5237 15.7686 20.2503C15.7686 19.7829 15.9119 19.3467 16.1597 18.9821L12.349 15.2778C12.0825 15.4262 11.7758 15.5108 11.4476 15.5108C10.443 15.5108 9.62598 14.7166 9.62598 13.74C9.62598 12.7635 10.443 11.9692 11.4476 11.9692C12.4522 11.9692 13.2692 12.7635 13.2692 13.74C13.2692 14.059 13.1822 14.3572 13.0308 14.6163L16.8415 18.3207C17.2165 18.0798 17.6639 17.9405 18.1461 17.9405C19.456 17.9405 20.5222 18.9769 20.5222 20.2503C20.5222 20.7178 20.3789 21.154 20.1311 21.5185L23.9418 25.2229C24.207 25.0758 24.5164 24.9898 24.8432 24.9898C25.8478 24.9898 26.6648 25.7841 26.6648 26.7606C26.6648 27.7372 25.8464 28.5314 24.8419 28.5314ZM24.8419 25.9273C24.3691 25.9273 23.9846 26.301 23.9846 26.7606C23.9846 27.2203 24.3691 27.594 24.8419 27.594C25.3147 27.594 25.6991 27.2203 25.6991 26.7606C25.6991 26.301 25.3147 25.9273 24.8419 25.9273ZM18.1447 18.878C17.3665 18.878 16.733 19.4938 16.733 20.2503C16.733 21.0068 17.3665 21.6227 18.1447 21.6227C18.9229 21.6227 19.5565 21.0068 19.5565 20.2503C19.5565 19.4938 18.9229 18.878 18.1447 18.878ZM11.4476 12.9067C10.9748 12.9067 10.5904 13.2804 10.5904 13.74C10.5904 14.1996 10.9748 14.5733 11.4476 14.5733C11.9204 14.5733 12.3048 14.1996 12.3048 13.74C12.3048 13.2804 11.9204 12.9067 11.4476 12.9067ZM22.5046 21.8844L21.8215 21.2217L27.4095 15.7908C28.0337 15.1827 28.378 14.3767 28.378 13.5174C28.378 11.7453 26.8966 10.3026 25.0723 10.3026C24.1896 10.3026 23.3591 10.6372 22.735 11.244L19.8257 14.0707L19.1439 13.408L22.0518 10.5812C22.8595 9.79737 23.9297 9.36509 25.0723 9.36509C27.427 9.36509 29.3423 11.227 29.3423 13.5161C29.3423 14.6241 28.8977 15.6671 28.0913 16.4509L22.5046 21.8844ZM11.1074 19.279L8.19949 16.4522C7.39316 15.6684 6.94847 14.6267 6.94847 13.5174C6.94847 11.2283 8.86385 9.36639 11.2186 9.36639C12.3598 9.36639 13.4313 9.79867 14.2376 10.5825L21.1651 17.3155L20.482 17.9782L13.5559 11.2453C12.9317 10.6385 12.1012 10.3039 11.2172 10.3039C9.39426 10.3039 7.91018 11.7453 7.91018 13.5187C7.91018 14.378 8.25441 15.184 8.87858 15.7921L11.7865 18.6188L11.1074 19.279Z" fill="#F5F5FC" stroke="#F5F5FC" stroke-width="0.5"/>
</svg>
