<svg width="54" height="40" viewBox="0 0 54 40" fill="none" xmlns="http://www.w3.org/2000/svg">
<path d="M48.9375 28.3333H43.875V22.6217C43.875 21.2433 42.7393 20.1217 41.3438 20.1217H39.9279C39.7777 19.805 39.5331 19.5233 39.1686 19.3433L29.2629 14.4517C28.8107 14.2283 28.3298 14.1017 27.8421 14.02V11.6667H33.75C36.5462 11.6667 38.8125 9.42833 38.8125 6.66667V5C38.8125 2.23833 36.5462 0 33.75 0H20.25C17.4538 0 15.1875 2.23833 15.1875 5V6.66667C15.1875 9.42833 17.4538 11.6667 20.25 11.6667H26.1562V14.02C25.6686 14.1017 25.1893 14.2283 24.7354 14.4517L14.8298 19.3433C14.4653 19.5233 14.2223 19.805 14.0704 20.1217H12.6562C11.2607 20.1217 10.125 21.2433 10.125 22.6217V28.3333H5.0625C2.26631 28.3333 0 30.5717 0 33.3333V35C0 37.7617 2.26631 40 5.0625 40H16.875C19.6712 40 21.9375 37.7617 21.9375 35V33.3333C21.9375 30.5717 19.6712 28.3333 16.875 28.3333H11.8125V22.6217C11.8125 22.1617 12.1922 21.7883 12.6562 21.7883H14.2155C14.3674 22.0017 14.5648 22.1933 14.8314 22.325L24.7371 27.2167C25.4492 27.5683 26.2254 27.745 27.0017 27.745C27.7779 27.745 28.5525 27.5683 29.2663 27.2167L39.1719 22.325C39.4386 22.1933 39.636 22.0033 39.7879 21.7883H41.3438C41.8078 21.7883 42.1875 22.1617 42.1875 22.6217V28.3333H37.125C34.3288 28.3333 32.0625 30.5717 32.0625 33.3333V35C32.0625 37.7617 34.3288 40 37.125 40H48.9375C51.7337 40 54 37.7617 54 35V33.3333C54 30.5717 51.7337 28.3333 48.9375 28.3333ZM16.875 6.66667V5C16.875 3.16167 18.3887 1.66667 20.25 1.66667H33.75C35.6113 1.66667 37.125 3.16167 37.125 5V6.66667C37.125 8.505 35.6113 10 33.75 10H20.25C18.3887 10 16.875 8.505 16.875 6.66667ZM20.25 33.3333V35C20.25 36.8383 18.7363 38.3333 16.875 38.3333H5.0625C3.20119 38.3333 1.6875 36.8383 1.6875 35V33.3333C1.6875 31.495 3.20119 30 5.0625 30H16.875C18.7363 30 20.25 31.495 20.25 33.3333ZM28.5086 25.725C28.0429 25.955 27.5197 26.0767 27 26.0767C26.4786 26.0767 25.9571 25.955 25.4914 25.725L15.5858 20.8333L25.4914 15.9417C25.9571 15.7117 26.4803 15.59 27 15.59C27.5197 15.59 28.0429 15.7117 28.5086 15.9417L38.4142 20.8333L28.5086 25.725ZM52.3125 35C52.3125 36.8383 50.7988 38.3333 48.9375 38.3333H37.125C35.2637 38.3333 33.75 36.8383 33.75 35V33.3333C33.75 31.495 35.2637 30 37.125 30H48.9375C50.7988 30 52.3125 31.495 52.3125 33.3333V35Z" fill="#F5F5FC"/>
</svg>
