<svg width="39" height="42" viewBox="0 0 39 42" fill="none" xmlns="http://www.w3.org/2000/svg">
<path d="M19.9835 40.9656H1V6.99512H20.9827V14.9882H28.9757" stroke="#F5F5FC" stroke-width="2" stroke-miterlimit="10" stroke-linecap="round" stroke-linejoin="round"/>
<path d="M28.9755 14.9882H20.9824V6.99512L28.9755 14.9882Z" stroke="#F5F5FC" stroke-width="2" stroke-miterlimit="10" stroke-linecap="round" stroke-linejoin="round"/>
<path d="M28.9751 18.9844V14.9879H20.982V6.9948H6.99414V1H26.9768L34.9699 8.99306V20.9827" stroke="#F5F5FC" stroke-width="2" stroke-miterlimit="10" stroke-linecap="round" stroke-linejoin="round"/>
<path d="M34.9716 8.99306H26.9785V1L34.9716 8.99306Z" stroke="#F5F5FC" stroke-width="2" stroke-miterlimit="10" stroke-linecap="round" stroke-linejoin="round"/>
<path d="M28.9755 14.9882H20.9824V6.99512L28.9755 14.9882Z" stroke="#F5F5FC" stroke-width="2" stroke-miterlimit="10" stroke-linecap="round" stroke-linejoin="round"/>
<path d="M8.99262 18.9844C11.1998 18.9844 12.9892 17.1951 12.9892 14.9879C12.9892 12.7806 11.1998 10.9913 8.99262 10.9913C6.7854 10.9913 4.99609 12.7806 4.99609 14.9879C4.99609 17.1951 6.7854 18.9844 8.99262 18.9844Z" stroke="#F5F5FC" stroke-width="2" stroke-miterlimit="10" stroke-linecap="round" stroke-linejoin="round"/>
<path d="M19.984 33.9717H5.99609" stroke="#F5F5FC" stroke-width="2" stroke-miterlimit="10" stroke-linecap="round" stroke-linejoin="round"/>
<path d="M19.984 28.9757H5.99609" stroke="#F5F5FC" stroke-width="2" stroke-miterlimit="10" stroke-linecap="round" stroke-linejoin="round"/>
<path d="M14.9883 23.9805H5.99609" stroke="#F5F5FC" stroke-width="2" stroke-miterlimit="10" stroke-linecap="round" stroke-linejoin="round"/>
<path d="M37.9688 32.6721C37.669 37.0682 34.0721 40.6651 29.676 40.9649C25.08 41.3645 21.1833 38.2672 20.1842 33.9709C20.0843 33.3714 19.9844 32.6721 19.9844 31.9727C19.9844 30.9735 20.1842 29.8745 20.4839 28.9753C21.6829 25.4783 25.08 22.9805 28.9766 22.9805C31.2746 22.9805 33.3728 23.8797 34.9714 25.2785C36.9696 27.0769 38.1686 29.6747 37.9688 32.6721Z" stroke="#F5F5FC" stroke-width="2" stroke-miterlimit="10" stroke-linecap="round" stroke-linejoin="round"/>
<path d="M28.9766 26.9774V27.9765" stroke="#F5F5FC" stroke-width="2" stroke-miterlimit="10" stroke-linecap="round" stroke-linejoin="round"/>
<path d="M28.9766 35.9696V36.9687" stroke="#F5F5FC" stroke-width="2" stroke-miterlimit="10" stroke-linecap="round" stroke-linejoin="round"/>
<path d="M26.9785 34.9705L27.3782 35.3701C27.7778 35.7698 28.2774 35.9696 28.777 35.9696H28.9768C30.0758 35.9696 30.975 35.0704 30.975 33.9714C30.975 32.8723 30.0758 31.9731 28.9768 31.9731C27.8777 31.9731 26.9785 31.0739 26.9785 29.9748C26.9785 28.8758 27.8777 27.9766 28.9768 27.9766H29.1766C29.6762 27.9766 30.1757 28.1764 30.5754 28.576L30.975 28.9757" stroke="#F5F5FC" stroke-width="2" stroke-miterlimit="10" stroke-linecap="round" stroke-linejoin="round"/>
</svg>
