<svg width="43" height="40" viewBox="0 0 43 40" fill="none" xmlns="http://www.w3.org/2000/svg">
<path d="M9.21429 11.5385C9.21429 11.1138 9.55829 10.7692 9.98214 10.7692H14.5893C15.0131 10.7692 15.3571 11.1138 15.3571 11.5385C15.3571 11.9631 15.0131 12.3077 14.5893 12.3077H9.98214C9.55829 12.3077 9.21429 11.9631 9.21429 11.5385ZM9.98214 15.3846H14.5893C15.0131 15.3846 15.3571 15.04 15.3571 14.6154C15.3571 14.1908 15.0131 13.8462 14.5893 13.8462H9.98214C9.55829 13.8462 9.21429 14.1908 9.21429 14.6154C9.21429 15.04 9.55829 15.3846 9.98214 15.3846ZM43 7.69231V35.3846C43 37.9338 40.9375 40 38.3929 40H4.60714C2.06246 40 0 37.9338 0 35.3846V7.69231C0 5.14308 2.06246 3.07692 4.60714 3.07692C4.60714 3.07692 5.29514 1.53846 6.14286 1.53846H10.8913C11.2092 0.644615 12.0538 0 13.0536 0C14.0533 0 14.898 0.644615 15.2159 1.53846H18.4286C19.2763 1.53846 19.9643 2.22769 19.9643 3.07692H38.3929C40.9375 3.07692 43 5.14308 43 7.69231ZM6.14286 18.4615H18.4286V3.07692H15.3571V6.92308C15.3571 8.29538 14.1547 9.39231 12.751 9.21077C11.59 9.06154 10.75 8.01538 10.75 6.84308V6.53846C10.75 6.11385 11.094 5.76923 11.5179 5.76923C11.9417 5.76923 12.2857 6.11385 12.2857 6.53846V6.92308C12.2857 7.38923 12.7019 7.76 13.1826 7.68154C13.5604 7.62 13.8214 7.26308 13.8214 6.88V3.07692H6.14286V18.4615ZM41.4274 35.7569C40.615 36.4738 39.56 36.9231 38.3929 36.9231H4.60714C3.44 36.9231 2.38496 36.4738 1.57257 35.7569C1.75839 37.2785 3.03764 38.4615 4.60714 38.4615H38.3929C39.9624 38.4615 41.2416 37.2785 41.4274 35.7569ZM41.4643 7.69231C41.4643 5.99231 40.0898 4.61538 38.3929 4.61538H19.9643V18.4615C19.9643 19.3108 19.2763 20 18.4286 20H6.14286C5.29514 20 4.60714 19.3108 4.60714 18.4615V4.61538C2.91018 4.61538 1.53571 5.99231 1.53571 7.69231V32.3077C1.53571 34.0077 2.91018 35.3846 4.60714 35.3846H38.3929C40.0898 35.3846 41.4643 34.0077 41.4643 32.3077V7.69231ZM37.9183 16.9815C37.8246 16.9431 37.7248 16.9231 37.625 16.9231H31.4821C31.0583 16.9231 30.7143 17.2677 30.7143 17.6923C30.7143 18.1169 31.0583 18.4615 31.4821 18.4615H35.7714L31.1642 23.0769H28.7286L25.8814 20.2246C25.5819 19.9246 25.0951 19.9246 24.7956 20.2246L20.4143 24.6154H14.5893C14.385 24.6154 14.19 24.6969 14.0456 24.84L9.66425 29.2308H5.375C4.95114 29.2308 4.60714 29.5754 4.60714 30C4.60714 30.4246 4.95114 30.7692 5.375 30.7692H9.98214C10.1864 30.7692 10.3814 30.6877 10.5258 30.5446L14.9072 26.1538H20.7321C20.9364 26.1538 21.1314 26.0723 21.2758 25.9292L25.3393 21.8585L27.8671 24.3908C28.0114 24.5338 28.2065 24.6154 28.4107 24.6154H31.4821C31.6864 24.6154 31.8814 24.5338 32.0258 24.3908L36.8571 19.5492V23.8462C36.8571 24.2708 37.2011 24.6154 37.625 24.6154C38.0489 24.6154 38.3929 24.2708 38.3929 23.8462V17.6923C38.3929 17.5923 38.3729 17.4923 38.3345 17.3985C38.2562 17.2108 38.1057 17.06 37.9183 16.9815Z" fill="#F5F5FC"/>
</svg>
